<svg width="16" height="17" viewBox="0 0 16 17" fill="none" xmlns="http://www.w3.org/2000/svg">
<path d="M9.19996 13.6429V5.41429L11.202 7.39429C11.3727 7.56314 11.5764 7.64286 11.8 7.64286C12.2264 7.64286 12.6666 7.29443 12.6666 6.78571C12.6666 6.55814 12.583 6.35971 12.4153 6.19429L8.96683 2.78371C8.82469 2.64314 8.64919 2.5 8.33329 2.5C8.01739 2.5 7.86529 2.61957 7.70626 2.77686L4.25129 6.19429C4.08359 6.35971 3.99996 6.55814 3.99996 6.78571C3.99996 7.29486 4.44023 7.64286 4.86663 7.64286C5.09023 7.64286 5.29389 7.56314 5.46463 7.39429L7.46663 5.41429L7.46663 13.6429C7.46663 14.116 7.85489 14.5 8.33329 14.5C8.81169 14.5 9.19996 14.116 9.19996 13.6429Z" fill="#4250CE"/>
</svg>
