<svg width="16" height="17" viewBox="0 0 16 17" fill="none" xmlns="http://www.w3.org/2000/svg">
<path d="M9.19996 3.35714V11.5857L11.202 9.60571C11.3727 9.43686 11.5764 9.35714 11.8 9.35714C12.2264 9.35714 12.6666 9.70557 12.6666 10.2143C12.6666 10.4419 12.583 10.6403 12.4153 10.8057L8.96683 14.2163C8.82469 14.3569 8.64919 14.5 8.33329 14.5C8.01739 14.5 7.86529 14.3804 7.70626 14.2231L4.25129 10.8057C4.08359 10.6403 3.99996 10.4419 3.99996 10.2143C3.99996 9.70514 4.44023 9.35714 4.86663 9.35714C5.09023 9.35714 5.29389 9.43686 5.46463 9.60571L7.46663 11.5857L7.46663 3.35714C7.46663 2.884 7.85489 2.5 8.33329 2.5C8.81169 2.5 9.19996 2.884 9.19996 3.35714Z" fill="#689FF1"/>
</svg>
