<svg width="16" height="16" viewBox="0 0 16 16" fill="none" xmlns="http://www.w3.org/2000/svg">
<rect width="14.4" height="14.4" transform="translate(0.799988 0.799805)" fill="#ECEEF0"/>
<path fill-rule="evenodd" clip-rule="evenodd" d="M3.49998 13.3996C3.49998 13.3996 2.59998 13.3996 2.59998 12.4996C2.59998 11.5996 3.49998 8.89961 7.99998 8.89961C12.5 8.89961 13.4 11.5996 13.4 12.4996C13.4 13.3996 12.5 13.3996 12.5 13.3996H3.49998ZM7.99998 7.99961C8.71606 7.99961 9.40282 7.71515 9.90916 7.2088C10.4155 6.70245 10.7 6.01569 10.7 5.29961C10.7 4.58352 10.4155 3.89677 9.90916 3.39042C9.40282 2.88407 8.71606 2.59961 7.99998 2.59961C7.28389 2.59961 6.59714 2.88407 6.09079 3.39042C5.58444 3.89677 5.29998 4.58352 5.29998 5.29961C5.29998 6.01569 5.58444 6.70245 6.09079 7.2088C6.59714 7.71515 7.28389 7.99961 7.99998 7.99961Z" fill="white"/>
</svg>
