<svg width="16" height="16" viewBox="0 0 16 16" fill="none" xmlns="http://www.w3.org/2000/svg">
<path d="M13.7184 5.58317H12.3152L11.9252 4.49984C11.5245 3.38603 10.568 2.6665 9.48821 2.6665H6.51164C5.43211 2.6665 4.47539 3.38603 4.07437 4.49984L3.68437 5.58317H2.2814C2.09835 5.58317 1.96406 5.77432 2.00859 5.97145L2.14921 6.59645C2.18038 6.73551 2.29288 6.83317 2.42202 6.83317H2.89242C2.57765 7.13864 2.37492 7.58265 2.37492 8.08317V9.33317C2.37492 9.75296 2.51929 10.1319 2.74992 10.4251V12.4998C2.74992 12.96 3.08578 13.3332 3.49992 13.3332H4.24992C4.66406 13.3332 4.99992 12.96 4.99992 12.4998V11.6665H10.9999V12.4998C10.9999 12.96 11.3358 13.3332 11.7499 13.3332H12.4999C12.9141 13.3332 13.2499 12.96 13.2499 12.4998V10.4251C13.4806 10.1321 13.6249 9.75322 13.6249 9.33317V8.08317C13.6249 7.58265 13.4222 7.13864 13.1077 6.83317H13.5781C13.7072 6.83317 13.8197 6.73551 13.8509 6.59645L13.9915 5.97145C14.0358 5.77432 13.9015 5.58317 13.7184 5.58317ZM5.46703 5.11885C5.63789 4.64437 6.05156 4.33317 6.51164 4.33317H9.48821C9.94828 4.33317 10.362 4.64437 10.5328 5.11885L10.9999 6.4165H4.99992L5.46703 5.11885ZM4.24992 9.99463C3.79992 9.99463 3.49992 9.66234 3.49992 9.1639C3.49992 8.66546 3.79992 8.33317 4.24992 8.33317C4.69992 8.33317 5.37492 9.08083 5.37492 9.57927C5.37492 10.0777 4.69992 9.99463 4.24992 9.99463ZM11.7499 9.99463C11.2999 9.99463 10.6249 10.0777 10.6249 9.57927C10.6249 9.08083 11.2999 8.33317 11.7499 8.33317C12.1999 8.33317 12.4999 8.66546 12.4999 9.1639C12.4999 9.66234 12.1999 9.99463 11.7499 9.99463Z" fill="#4A5663"/>
</svg>
