<svg width="16" height="16" viewBox="0 0 16 16" fill="none" xmlns="http://www.w3.org/2000/svg">
<path d="M13.0867 10.7053C13.1695 10.7054 13.2504 10.6815 13.3199 10.6365C13.3893 10.5916 13.4443 10.5275 13.4781 10.452C13.8872 9.53815 14.0612 8.53649 13.9842 7.53823C13.9071 6.53998 13.5815 5.57688 13.0369 4.7367C12.4924 3.89651 11.7462 3.20595 10.8665 2.72795C9.98673 2.24995 9.00135 1.9997 8.00013 2C7.88647 2 7.77746 2.04515 7.69709 2.12553C7.61671 2.2059 7.57156 2.31491 7.57156 2.42857V7.99999C7.57155 8.08275 7.59549 8.16374 7.6405 8.23318C7.68552 8.30263 7.74967 8.35755 7.82522 8.39133L12.9118 10.6668C12.9667 10.6919 13.0264 10.705 13.0867 10.7053Z" fill="#8A97A6"/>
<path d="M6.45731 2.96912C6.48838 2.96282 6.52047 2.96349 6.55125 2.97109C6.58203 2.97869 6.61075 2.99302 6.63532 3.01306C6.65989 3.0331 6.67971 3.05834 6.69335 3.08696C6.70699 3.11558 6.7141 3.14688 6.71418 3.17858V8C6.7144 8.24815 6.78631 8.49094 6.92127 8.69918C7.05623 8.90741 7.24848 9.07221 7.4749 9.17375L12.0946 11.2411C12.1233 11.2539 12.1487 11.2728 12.1693 11.2965C12.1898 11.3202 12.2049 11.3481 12.2134 11.3783C12.222 11.4084 12.2238 11.4401 12.2188 11.4711C12.2138 11.502 12.202 11.5315 12.1844 11.5574C11.8308 12.0774 11.392 12.5339 10.8863 12.9077C9.92833 13.6203 8.76531 14.0036 7.57133 14C4.49928 14 1.99991 11.5006 1.99991 8.42857C1.99991 5.73795 3.91722 3.48662 6.45731 2.96912Z" fill="#8A97A6"/>
</svg>
