<svg width="16" height="16" viewBox="0 0 16 16" fill="none" xmlns="http://www.w3.org/2000/svg">
<path d="M2 3.99984C2 3.2665 2.54 2.6665 3.2 2.6665H12.2C12.3591 2.6665 12.5117 2.73674 12.6243 2.86177C12.7368 2.98679 12.8 3.15636 12.8 3.33317V3.99984H3.2V4.6665H13.4C13.5591 4.6665 13.7117 4.73674 13.8243 4.86177C13.9368 4.98679 14 5.15636 14 5.33317V11.9998C14 12.3535 13.8736 12.6926 13.6485 12.9426C13.4235 13.1927 13.1183 13.3332 12.8 13.3332H3.2C2.88174 13.3332 2.57652 13.1927 2.35147 12.9426C2.12643 12.6926 2 12.3535 2 11.9998V3.99984ZM11.9 9.99984C12.1387 9.99984 12.3676 9.89448 12.5364 9.70694C12.7052 9.51941 12.8 9.26505 12.8 8.99984C12.8 8.73462 12.7052 8.48027 12.5364 8.29273C12.3676 8.10519 12.1387 7.99984 11.9 7.99984C11.6613 7.99984 11.4324 8.10519 11.2636 8.29273C11.0948 8.48027 11 8.73462 11 8.99984C11 9.26505 11.0948 9.51941 11.2636 9.70694C11.4324 9.89448 11.6613 9.99984 11.9 9.99984Z" fill="#4A5663"/>
</svg>
