<svg width="16" height="16" viewBox="0 0 16 16" fill="none" xmlns="http://www.w3.org/2000/svg">
<g clip-path="url(#clip0_822_2369)">
<path d="M7.99331 1.3335C4.31331 1.3335 1.33331 4.32016 1.33331 8.00016C1.33331 11.6802 4.31331 14.6668 7.99331 14.6668C11.68 14.6668 14.6666 11.6802 14.6666 8.00016C14.6666 4.32016 11.68 1.3335 7.99331 1.3335ZM12.6133 5.3335H10.6466C10.4333 4.50016 10.1266 3.70016 9.72665 2.96016C10.9533 3.38016 11.9733 4.2335 12.6133 5.3335ZM7.99998 2.6935C8.55331 3.4935 8.98665 4.38016 9.27331 5.3335H6.72665C7.01331 4.38016 7.44665 3.4935 7.99998 2.6935ZM2.83998 9.3335C2.73331 8.90683 2.66665 8.46016 2.66665 8.00016C2.66665 7.54016 2.73331 7.0935 2.83998 6.66683H5.09331C5.03998 7.10683 4.99998 7.54683 4.99998 8.00016C4.99998 8.4535 5.03998 8.8935 5.09331 9.3335H2.83998ZM3.38665 10.6668H5.35331C5.56665 11.5002 5.87331 12.3002 6.27331 13.0402C5.04665 12.6202 4.02665 11.7735 3.38665 10.6668ZM5.35331 5.3335H3.38665C4.02665 4.22683 5.04665 3.38016 6.27331 2.96016C5.87331 3.70016 5.56665 4.50016 5.35331 5.3335ZM7.99998 13.3068C7.44665 12.5068 7.01331 11.6202 6.72665 10.6668H9.27331C8.98665 11.6202 8.55331 12.5068 7.99998 13.3068ZM9.55998 9.3335H6.43998C6.37998 8.8935 6.33331 8.4535 6.33331 8.00016C6.33331 7.54683 6.37998 7.10016 6.43998 6.66683H9.55998C9.61998 7.10016 9.66665 7.54683 9.66665 8.00016C9.66665 8.4535 9.61998 8.8935 9.55998 9.3335ZM9.72665 13.0402C10.1266 12.3002 10.4333 11.5002 10.6466 10.6668H12.6133C11.9733 11.7668 10.9533 12.6202 9.72665 13.0402ZM10.9066 9.3335C10.96 8.8935 11 8.4535 11 8.00016C11 7.54683 10.96 7.10683 10.9066 6.66683H13.16C13.2666 7.0935 13.3333 7.54016 13.3333 8.00016C13.3333 8.46016 13.2666 8.90683 13.16 9.3335H10.9066Z" fill="#4A5663"/>
</g>
<defs>
<clipPath id="clip0_822_2369">
<rect width="16" height="16" fill="white"/>
</clipPath>
</defs>
</svg>
