<svg width="16" height="16" viewBox="0 0 16 16" fill="none" xmlns="http://www.w3.org/2000/svg">
<g clip-path="url(#clip0_822_245)">
<path d="M10.4287 5.13128C10.168 4.87375 9.74864 4.87375 9.48789 5.13128C9.22288 5.39302 9.22247 5.82073 9.48697 6.08298L10.7481 7.33333H4.54998C4.18179 7.33333 3.88331 7.63181 3.88331 8C3.88331 8.36819 4.18179 8.66667 4.54998 8.66667H10.7481L9.48835 9.91083C9.22296 10.1729 9.22221 10.6012 9.48667 10.8642C9.74783 11.124 10.1695 11.1247 10.4316 10.8659L12.6129 8.71148C13.0093 8.31998 13.0093 7.68002 12.6129 7.28852L10.4287 5.13128ZM2.68331 3.33333H7.41665C7.78484 3.33333 8.08331 3.03486 8.08331 2.66667C8.08331 2.29848 7.78484 2 7.41665 2H2.68331C1.94081 2 1.33331 2.6 1.33331 3.33333V12.6667C1.33331 13.4 1.94081 14 2.68331 14H7.41665C7.78484 14 8.08331 13.7015 8.08331 13.3333C8.08331 12.9651 7.78484 12.6667 7.41665 12.6667H2.68331V3.33333Z" fill="#4250CE"/>
</g>
<defs>
<clipPath id="clip0_822_245">
<rect width="16" height="16" fill="white"/>
</clipPath>
</defs>
</svg>
