<svg width="202" height="56" viewBox="0 0 202 56" fill="none" xmlns="http://www.w3.org/2000/svg">
<g filter="url(#filter0_d_242_23003)">
<rect x="16.5" y="8" width="40" height="40" rx="4" fill="white"/>
<path d="M46.2216 39.1509C46.3665 39.3177 46.3492 39.5708 46.1784 39.7109C44.5665 41.0337 42.6794 41.983 40.6529 42.4883C38.497 43.0258 36.2444 43.0455 34.0794 42.5456C31.9143 42.0458 29.8983 41.0407 28.1962 39.6124C26.4941 38.1842 25.1542 36.3733 24.286 34.328C23.4178 32.2827 23.046 30.0609 23.201 27.8443C23.356 25.6278 24.0334 23.4794 25.1778 21.5748C26.3222 19.6702 27.9011 18.0635 29.7854 16.886C31.5484 15.7844 34.0689 14.9708 36.199 14.712C36.432 14.6837 36.6331 14.8684 36.6331 15.103L36.6331 21.4468C36.6331 21.6542 36.4743 21.8259 36.2689 21.8547C35.2926 21.9917 34.3544 22.3324 33.516 22.8562C32.5739 23.445 31.7844 24.2483 31.2122 25.2006C30.64 26.1529 30.3013 27.2271 30.2238 28.3354C30.1463 29.4437 30.3322 30.5546 30.7663 31.5773C31.2004 32.5999 31.8704 33.5053 32.7214 34.2195C33.5725 34.9336 34.5805 35.4362 35.663 35.6861C36.7455 35.936 37.8718 35.9262 38.9498 35.6574C39.8982 35.4209 40.7855 34.9899 41.5561 34.3934C41.7308 34.2581 41.9828 34.2748 42.1277 34.4415L46.2216 39.1509Z" fill="#4250CE"/>
<path d="M37.9232 15.107C37.9232 14.8709 38.1264 14.6857 38.3605 14.7162C40.8779 15.0437 43.8098 16.1262 45.779 17.6265C47.7573 19.1336 49.2992 21.1364 50.2508 23.429C50.3354 23.6331 50.2316 23.8646 50.0252 23.9434L44.1963 26.1708C43.9899 26.2496 43.7597 26.1457 43.6693 25.9442C43.1893 24.8745 42.4487 23.9396 41.5127 23.2265C40.567 22.506 39.4558 22.0379 38.2837 21.8633C38.0799 21.833 37.9232 21.6619 37.9232 21.4559L37.9232 15.107Z" fill="#689FF1"/>
<path d="M50.4833 25.2042C50.708 25.1304 50.9476 25.2663 50.9913 25.4987C51.3843 27.5876 51.4013 30.2677 50.9027 32.2543C50.4043 34.2397 49.036 36.5893 47.6922 38.2444C47.5421 38.4292 47.2644 38.4345 47.1019 38.2605L42.8256 33.6827C42.6863 33.5336 42.6827 33.3041 42.8078 33.1428C43.405 32.3734 43.8368 31.4874 44.0745 30.5403C44.3119 29.5944 44.3499 28.6108 44.1876 27.6518C44.1533 27.449 44.2669 27.2472 44.4623 27.1829L50.4833 25.2042Z" fill="#4CAC8F"/>
</g>
<path d="M76.148 37.892C74.5987 37.892 73.1613 37.6493 71.836 37.164C70.5293 36.66 69.3907 35.9507 68.42 35.036C67.468 34.1213 66.7213 33.048 66.18 31.816C65.6387 30.5653 65.368 29.1933 65.368 27.7C65.368 26.2067 65.6387 24.844 66.18 23.612C66.7213 22.3613 67.468 21.2787 68.42 20.364C69.3907 19.4493 70.5293 18.7493 71.836 18.264C73.1613 17.76 74.5987 17.508 76.148 17.508C77.9587 17.508 79.5733 17.8253 80.992 18.46C82.4293 19.0947 83.624 20.0093 84.576 21.204L81.048 24.396C80.4133 23.6493 79.7133 23.08 78.948 22.688C78.2013 22.296 77.3613 22.1 76.428 22.1C75.6253 22.1 74.888 22.2307 74.216 22.492C73.544 22.7533 72.9653 23.136 72.48 23.64C72.0133 24.1253 71.64 24.7133 71.36 25.404C71.0987 26.0947 70.968 26.86 70.968 27.7C70.968 28.54 71.0987 29.3053 71.36 29.996C71.64 30.6867 72.0133 31.284 72.48 31.788C72.9653 32.2733 73.544 32.6467 74.216 32.908C74.888 33.1693 75.6253 33.3 76.428 33.3C77.3613 33.3 78.2013 33.104 78.948 32.712C79.7133 32.32 80.4133 31.7507 81.048 31.004L84.576 34.196C83.624 35.372 82.4293 36.2867 80.992 36.94C79.5733 37.5747 77.9587 37.892 76.148 37.892ZM95.9018 37.5V34.672L95.5378 33.972V28.764C95.5378 27.924 95.2764 27.28 94.7538 26.832C94.2498 26.3653 93.4378 26.132 92.3178 26.132C91.5898 26.132 90.8524 26.2533 90.1058 26.496C89.3591 26.72 88.7244 27.0373 88.2018 27.448L86.4098 23.836C87.2684 23.276 88.2951 22.8467 89.4898 22.548C90.7031 22.2307 91.9071 22.072 93.1018 22.072C95.5658 22.072 97.4698 22.6413 98.8138 23.78C100.176 24.9 100.858 26.664 100.858 29.072V37.5H95.9018ZM91.4218 37.752C90.2084 37.752 89.1818 37.5467 88.3418 37.136C87.5018 36.7253 86.8578 36.1653 86.4098 35.456C85.9804 34.7467 85.7658 33.9533 85.7658 33.076C85.7658 32.1427 85.9991 31.34 86.4658 30.668C86.9511 29.9773 87.6884 29.4547 88.6778 29.1C89.6671 28.7267 90.9458 28.54 92.5138 28.54H96.0978V31.312H93.2418C92.3831 31.312 91.7764 31.452 91.4218 31.732C91.0858 32.012 90.9178 32.3853 90.9178 32.852C90.9178 33.3187 91.0951 33.692 91.4498 33.972C91.8044 34.252 92.2898 34.392 92.9058 34.392C93.4844 34.392 94.0071 34.252 94.4738 33.972C94.9591 33.6733 95.3138 33.2253 95.5378 32.628L96.2658 34.588C95.9858 35.6333 95.4351 36.4267 94.6138 36.968C93.8111 37.4907 92.7471 37.752 91.4218 37.752ZM104.216 37.5V22.324H109.284V26.748L108.528 25.488C108.976 24.3493 109.704 23.5 110.712 22.94C111.72 22.3613 112.942 22.072 114.38 22.072V26.86C114.137 26.8227 113.922 26.804 113.736 26.804C113.568 26.7853 113.381 26.776 113.176 26.776C112.093 26.776 111.216 27.0747 110.544 27.672C109.872 28.2507 109.536 29.2027 109.536 30.528V37.5H104.216ZM117.246 37.5V22.492C117.246 20.6627 117.787 19.2067 118.87 18.124C119.971 17.0227 121.539 16.472 123.574 16.472C124.227 16.472 124.871 16.5373 125.506 16.668C126.141 16.7987 126.673 16.9947 127.102 17.256L125.786 21.008C125.562 20.8773 125.31 20.7747 125.03 20.7C124.75 20.6067 124.47 20.56 124.19 20.56C123.63 20.56 123.191 20.728 122.874 21.064C122.575 21.3813 122.426 21.876 122.426 22.548V23.64L122.566 25.852V37.5H117.246ZM115.034 26.86V22.884H126.038V26.86H115.034ZM128.196 37.5V22.324H133.264V26.748L132.508 25.488C132.956 24.3493 133.684 23.5 134.692 22.94C135.7 22.3613 136.923 22.072 138.36 22.072V26.86C138.118 26.8227 137.903 26.804 137.716 26.804C137.548 26.7853 137.362 26.776 137.156 26.776C136.074 26.776 135.196 27.0747 134.524 27.672C133.852 28.2507 133.516 29.2027 133.516 30.528V37.5H128.196ZM148.921 37.5V34.672L148.557 33.972V28.764C148.557 27.924 148.296 27.28 147.773 26.832C147.269 26.3653 146.457 26.132 145.337 26.132C144.609 26.132 143.872 26.2533 143.125 26.496C142.379 26.72 141.744 27.0373 141.221 27.448L139.429 23.836C140.288 23.276 141.315 22.8467 142.509 22.548C143.723 22.2307 144.927 22.072 146.121 22.072C148.585 22.072 150.489 22.6413 151.833 23.78C153.196 24.9 153.877 26.664 153.877 29.072V37.5H148.921ZM144.441 37.752C143.228 37.752 142.201 37.5467 141.361 37.136C140.521 36.7253 139.877 36.1653 139.429 35.456C139 34.7467 138.785 33.9533 138.785 33.076C138.785 32.1427 139.019 31.34 139.485 30.668C139.971 29.9773 140.708 29.4547 141.697 29.1C142.687 28.7267 143.965 28.54 145.533 28.54H149.117V31.312H146.261C145.403 31.312 144.796 31.452 144.441 31.732C144.105 32.012 143.937 32.3853 143.937 32.852C143.937 33.3187 144.115 33.692 144.469 33.972C144.824 34.252 145.309 34.392 145.925 34.392C146.504 34.392 147.027 34.252 147.493 33.972C147.979 33.6733 148.333 33.2253 148.557 32.628L149.285 34.588C149.005 35.6333 148.455 36.4267 147.633 36.968C146.831 37.4907 145.767 37.752 144.441 37.752ZM165.183 37.752C163.503 37.752 162 37.416 160.675 36.744C159.368 36.072 158.341 35.148 157.595 33.972C156.848 32.7773 156.475 31.4147 156.475 29.884C156.475 28.3533 156.848 27 157.595 25.824C158.341 24.648 159.368 23.7333 160.675 23.08C162 22.408 163.503 22.072 165.183 22.072C166.9 22.072 168.384 22.436 169.635 23.164C170.885 23.892 171.772 24.9187 172.295 26.244L168.179 28.344C167.824 27.6347 167.385 27.1213 166.863 26.804C166.34 26.468 165.771 26.3 165.155 26.3C164.539 26.3 163.979 26.44 163.475 26.72C162.971 27 162.569 27.4107 162.271 27.952C161.991 28.4747 161.851 29.1187 161.851 29.884C161.851 30.668 161.991 31.3307 162.271 31.872C162.569 32.4133 162.971 32.824 163.475 33.104C163.979 33.384 164.539 33.524 165.155 33.524C165.771 33.524 166.34 33.3653 166.863 33.048C167.385 32.712 167.824 32.1893 168.179 31.48L172.295 33.58C171.772 34.9053 170.885 35.932 169.635 36.66C168.384 37.388 166.9 37.752 165.183 37.752ZM181.32 37.752C179.379 37.752 177.867 37.276 176.784 36.324C175.701 35.3533 175.16 33.8973 175.16 31.956V18.936H180.48V31.9C180.48 32.4413 180.629 32.8707 180.928 33.188C181.227 33.4867 181.609 33.636 182.076 33.636C182.711 33.636 183.252 33.4773 183.7 33.16L185.016 36.884C184.568 37.1827 184.017 37.3973 183.364 37.528C182.711 37.6773 182.029 37.752 181.32 37.752ZM172.948 26.86V22.884H183.952V26.86H172.948Z" fill="#4250CE"/>
<defs>
<filter id="filter0_d_242_23003" x="14.5" y="7" width="44" height="44" filterUnits="userSpaceOnUse" color-interpolation-filters="sRGB">
<feFlood flood-opacity="0" result="BackgroundImageFix"/>
<feColorMatrix in="SourceAlpha" type="matrix" values="0 0 0 0 0 0 0 0 0 0 0 0 0 0 0 0 0 0 127 0" result="hardAlpha"/>
<feOffset dy="1"/>
<feGaussianBlur stdDeviation="1"/>
<feComposite in2="hardAlpha" operator="out"/>
<feColorMatrix type="matrix" values="0 0 0 0 0.219253 0 0 0 0 0.231009 0 0 0 0 0.720833 0 0 0 0.15 0"/>
<feBlend mode="normal" in2="BackgroundImageFix" result="effect1_dropShadow_242_23003"/>
<feBlend mode="normal" in="SourceGraphic" in2="effect1_dropShadow_242_23003" result="shape"/>
</filter>
</defs>
</svg>
