<svg width="16" height="16" viewBox="0 0 16 16" fill="none" xmlns="http://www.w3.org/2000/svg">
<path d="M2.41667 2H4.91667C5.02717 2 5.13315 2.12643 5.21129 2.35147C5.28943 2.57651 5.33333 2.88174 5.33333 3.2V6.8V9.20001V12.8C5.33333 13.1183 5.28943 13.4235 5.21129 13.6485C5.13315 13.8736 5.02717 14 4.91667 14H2.41667C2.30616 14 2.20018 13.8736 2.12204 13.6485C2.0439 13.4235 2 13.1183 2 12.8V9.20001V6.8V3.2C2 2.88174 2.0439 2.57651 2.12204 2.35147C2.20018 2.12643 2.30616 2 2.41667 2Z" fill="#4A5663"/>
<path d="M9.24998 7.3335H6.74998C6.63947 7.3335 6.53349 7.38367 6.45535 7.47297C6.37721 7.56227 6.33331 7.68339 6.33331 7.80969V9.23826V12.0954V13.524C6.33331 13.6503 6.37721 13.7714 6.45535 13.8607C6.53349 13.95 6.63947 14.0002 6.74998 14.0002H9.24998C9.36049 14.0002 9.46647 13.95 9.54461 13.8607C9.62275 13.7714 9.66665 13.6503 9.66665 13.524V12.0954V9.23826V7.80969C9.66665 7.68339 9.62275 7.56227 9.54461 7.47297C9.46647 7.38367 9.36049 7.3335 9.24998 7.3335Z" fill="#4A5663"/>
<path d="M11.0834 4H13.5834C13.6939 4 13.7998 4.05853 13.878 4.16272C13.9561 4.2669 14 4.40821 14 4.55555V6.22222V11.7778V13.4444C14 13.5918 13.9561 13.7331 13.878 13.8373C13.7998 13.9415 13.6939 14 13.5834 14H11.0834C10.9728 14 10.8669 13.9415 10.7887 13.8373C10.7106 13.7331 10.6667 13.5918 10.6667 13.4444V11.7778V6.22222V4.55555C10.6667 4.40821 10.7106 4.2669 10.7887 4.16272C10.8669 4.05853 10.9728 4 11.0834 4Z" fill="#4A5663"/>
</svg>
