<svg width="16" height="16" viewBox="0 0 16 16" fill="none" xmlns="http://www.w3.org/2000/svg">
<path d="M3 2C2.44772 2 2 2.44772 2 3V12C2 13.1027 2.8076 14 3.8 14H12.2C13.187 14 14 13.0966 14 12V5.26667C14 4.9353 13.7314 4.66667 13.4 4.66667C13.0686 4.66667 12.8 4.9353 12.8 5.26667V12C12.8 12.3767 12.539 12.6667 12.2 12.6667C11.8688 12.6667 12 12.3673 12 12V3C12 2.44772 11.5523 2 11 2H3ZM3.73333 5C3.73333 4.44772 4.18105 4 4.73333 4H9.53333C10.0856 4 10.5333 4.44772 10.5333 5C10.5333 5.55228 10.0856 6 9.53333 6H4.73333C4.18105 6 3.73333 5.55228 3.73333 5ZM3.73333 8.33333C3.73333 8.14924 3.88257 8 4.06667 8H10.2C10.3841 8 10.5333 8.14924 10.5333 8.33333C10.5333 8.51743 10.3841 8.66667 10.2 8.66667H4.06667C3.88257 8.66667 3.73333 8.51743 3.73333 8.33333ZM3.73333 11C3.73333 10.8159 3.88257 10.6667 4.06667 10.6667H10.2C10.3841 10.6667 10.5333 10.8159 10.5333 11C10.5333 11.1841 10.3841 11.3333 10.2 11.3333H4.06667C3.88257 11.3333 3.73333 11.1841 3.73333 11Z" fill="#4A5663"/>
</svg>
