<svg width="16" height="16" viewBox="0 0 16 16" fill="none" xmlns="http://www.w3.org/2000/svg">
<g clip-path="url(#clip0_822_4955)">
<path d="M12.5876 8.5875C12.6133 8.4 12.6262 8.20625 12.6262 8C12.6262 7.8 12.6133 7.6 12.5812 7.4125L13.8856 6.425C14.0012 6.3375 14.0334 6.16875 13.9627 6.04375L12.729 3.96875C12.6519 3.83125 12.4913 3.7875 12.3499 3.83125L10.8142 4.43125C10.493 4.19375 10.1524 3.99375 9.77334 3.84375L9.54203 2.25625C9.51632 2.10625 9.38782 2 9.23361 2H6.76627C6.61206 2 6.48998 2.10625 6.46428 2.25625L6.23297 3.84375C5.85387 3.99375 5.5069 4.2 5.19206 4.43125L3.6564 3.83125C3.51504 3.78125 3.3544 3.83125 3.2773 3.96875L2.05006 6.04375C1.97295 6.175 1.99865 6.3375 2.12716 6.425L3.43151 7.4125C3.39938 7.6 3.37368 7.80625 3.37368 8C3.37368 8.19375 3.38653 8.4 3.41866 8.5875L2.11431 9.575C1.99865 9.6625 1.96653 9.83125 2.03721 9.95625L3.27087 12.0313C3.34798 12.1688 3.50861 12.2125 3.64997 12.1688L5.18563 11.5687C5.5069 11.8062 5.84744 12.0063 6.22654 12.1562L6.45785 13.7438C6.48998 13.8938 6.61206 14 6.76627 14H9.23361C9.38782 14 9.51632 13.8938 9.5356 13.7438L9.76691 12.1562C10.146 12.0063 10.493 11.8062 10.8078 11.5687L12.3435 12.1688C12.4848 12.2188 12.6455 12.1688 12.7226 12.0313L13.9562 9.95625C14.0334 9.81875 14.0012 9.6625 13.8791 9.575L12.5876 8.5875ZM7.99994 10.25C6.72772 10.25 5.68681 9.2375 5.68681 8C5.68681 6.7625 6.72772 5.75 7.99994 5.75C9.27216 5.75 10.3131 6.7625 10.3131 8C10.3131 9.2375 9.27216 10.25 7.99994 10.25Z" fill="#4A5663"/>
</g>
<defs>
<clipPath id="clip0_822_4955">
<rect width="16" height="16" fill="white"/>
</clipPath>
</defs>
</svg>
