<svg width="12" height="12" viewBox="0 0 12 12" fill="none" xmlns="http://www.w3.org/2000/svg">
<path d="M0 1.99984C0 1.2665 0.54 0.666504 1.2 0.666504H10.2C10.3591 0.666504 10.5117 0.736742 10.6243 0.861766C10.7368 0.98679 10.8 1.15636 10.8 1.33317V1.99984H1.2V2.6665H11.4C11.5591 2.6665 11.7117 2.73674 11.8243 2.86177C11.9368 2.98679 12 3.15636 12 3.33317V9.99984C12 10.3535 11.8736 10.6926 11.6485 10.9426C11.4235 11.1927 11.1183 11.3332 10.8 11.3332H1.2C0.88174 11.3332 0.576516 11.1927 0.351472 10.9426C0.126428 10.6926 0 10.3535 0 9.99984V1.99984ZM9.9 7.99984C10.1387 7.99984 10.3676 7.89448 10.5364 7.70694C10.7052 7.51941 10.8 7.26505 10.8 6.99984C10.8 6.73462 10.7052 6.48027 10.5364 6.29273C10.3676 6.10519 10.1387 5.99984 9.9 5.99984C9.66131 5.99984 9.43239 6.10519 9.2636 6.29273C9.09482 6.48027 9 6.73462 9 6.99984C9 7.26505 9.09482 7.51941 9.2636 7.70694C9.43239 7.89448 9.66131 7.99984 9.9 7.99984Z" fill="#4250CE"/>
</svg>
