<svg width="302" height="198" viewBox="0 0 302 198" fill="none" xmlns="http://www.w3.org/2000/svg">
<path d="M18.5788 194.596C18.2001 194.596 17.8508 194.527 17.5308 194.388C17.2161 194.244 16.9575 194.041 16.7548 193.78L17.4748 192.916C17.6295 193.119 17.7921 193.273 17.9628 193.38C18.1335 193.481 18.3175 193.532 18.5148 193.532C19.0428 193.532 19.3068 193.223 19.3068 192.604V189.94H17.3388V188.9H20.5948V192.532C20.5948 193.225 20.4241 193.743 20.0828 194.084C19.7415 194.425 19.2401 194.596 18.5788 194.596ZM21.0217 194.5L23.5178 188.9H24.7978L27.3018 194.5H25.9418L23.8938 189.556H24.4058L22.3498 194.5H21.0217ZM22.2697 193.3L22.6138 192.316H25.4938L25.8458 193.3H22.2697ZM27.8828 194.5V188.9H28.9548L32.2588 192.932H31.7387V188.9H33.0188V194.5H31.9548L28.6428 190.468H29.1628V194.5H27.8828Z" fill="#8A97A6"/>
<path d="M41.8484 191.42H44.5364V192.46H41.8484V191.42ZM41.9444 194.5H40.6484V188.9H44.8804V189.94H41.9444V194.5ZM46.9498 191.156H49.6458V192.164H46.9498V191.156ZM47.0458 193.46H50.0938V194.5H45.7578V188.9H49.9898V189.94H47.0458V193.46ZM51.1249 194.5V188.9H53.8609C54.5649 188.9 55.0929 189.033 55.4449 189.3C55.8023 189.567 55.9809 189.919 55.9809 190.356C55.9809 190.649 55.9089 190.905 55.7649 191.124C55.6209 191.337 55.4236 191.503 55.1729 191.62C54.9223 191.737 54.6343 191.796 54.3089 191.796L54.4609 191.468C54.8129 191.468 55.1249 191.527 55.3969 191.644C55.6689 191.756 55.8796 191.924 56.0289 192.148C56.1836 192.372 56.2609 192.647 56.2609 192.972C56.2609 193.452 56.0716 193.828 55.6929 194.1C55.3143 194.367 54.7569 194.5 54.0209 194.5H51.1249ZM52.4129 193.524H53.9249C54.2609 193.524 54.5143 193.471 54.6849 193.364C54.8609 193.252 54.9489 193.076 54.9489 192.836C54.9489 192.601 54.8609 192.428 54.6849 192.316C54.5143 192.199 54.2609 192.14 53.9249 192.14H52.3169V191.196H53.7009C54.0156 191.196 54.2556 191.143 54.4209 191.036C54.5916 190.924 54.6769 190.756 54.6769 190.532C54.6769 190.313 54.5916 190.151 54.4209 190.044C54.2556 189.932 54.0156 189.876 53.7009 189.876H52.4129V193.524Z" fill="#8A97A6"/>
<path d="M63.621 194.5V188.9H64.693L67.077 192.852H66.509L68.853 188.9H69.917L69.933 194.5H68.717L68.709 190.764H68.933L67.061 193.908H66.477L64.565 190.764H64.837V194.5H63.621ZM70.5257 194.5L73.0217 188.9H74.3017L76.8057 194.5H75.4457L73.3977 189.556H73.9097L71.8537 194.5H70.5257ZM71.7737 193.3L72.1177 192.316H74.9977L75.3497 193.3H71.7737ZM77.3867 194.5V188.9H79.8107C80.312 188.9 80.744 188.983 81.1067 189.148C81.4693 189.308 81.7493 189.54 81.9467 189.844C82.144 190.148 82.2427 190.511 82.2427 190.932C82.2427 191.348 82.144 191.708 81.9467 192.012C81.7493 192.311 81.4693 192.54 81.1067 192.7C80.744 192.86 80.312 192.94 79.8107 192.94H78.1067L78.6827 192.372V194.5H77.3867ZM80.9467 194.5L79.5467 192.468H80.9307L82.3467 194.5H80.9467ZM78.6827 192.516L78.1067 191.908H79.7387C80.1387 191.908 80.4373 191.823 80.6347 191.652C80.832 191.476 80.9307 191.236 80.9307 190.932C80.9307 190.623 80.832 190.383 80.6347 190.212C80.4373 190.041 80.1387 189.956 79.7387 189.956H78.1067L78.6827 189.34V192.516Z" fill="#8A97A6"/>
<path d="M88.8147 194.5L91.3107 188.9H92.5907L95.0947 194.5H93.7347L91.6867 189.556H92.1987L90.1427 194.5H88.8147ZM90.0627 193.3L90.4067 192.316H93.2867L93.6387 193.3H90.0627ZM95.6757 194.5V188.9H98.0997C98.6011 188.9 99.0331 188.983 99.3957 189.148C99.7584 189.308 100.038 189.54 100.236 189.844C100.433 190.148 100.532 190.511 100.532 190.932C100.532 191.348 100.433 191.708 100.236 192.012C100.038 192.316 99.7584 192.551 99.3957 192.716C99.0331 192.876 98.6011 192.956 98.0997 192.956H96.3957L96.9717 192.372V194.5H95.6757ZM96.9717 192.516L96.3957 191.9H98.0277C98.4277 191.9 98.7264 191.815 98.9237 191.644C99.1211 191.473 99.2197 191.236 99.2197 190.932C99.2197 190.623 99.1211 190.383 98.9237 190.212C98.7264 190.041 98.4277 189.956 98.0277 189.956H96.3957L96.9717 189.34V192.516ZM101.457 194.5V188.9H103.881C104.382 188.9 104.814 188.983 105.177 189.148C105.54 189.308 105.82 189.54 106.017 189.844C106.214 190.148 106.313 190.511 106.313 190.932C106.313 191.348 106.214 191.708 106.017 192.012C105.82 192.311 105.54 192.54 105.177 192.7C104.814 192.86 104.382 192.94 103.881 192.94H102.177L102.753 192.372V194.5H101.457ZM105.017 194.5L103.617 192.468H105.001L106.417 194.5H105.017ZM102.753 192.516L102.177 191.908H103.809C104.209 191.908 104.508 191.823 104.705 191.652C104.902 191.476 105.001 191.236 105.001 190.932C105.001 190.623 104.902 190.383 104.705 190.212C104.508 190.041 104.209 189.956 103.809 189.956H102.177L102.753 189.34V192.516Z" fill="#8A97A6"/>
<path d="M113.531 194.5V188.9H114.603L116.987 192.852H116.419L118.763 188.9H119.827L119.843 194.5H118.627L118.619 190.764H118.843L116.971 193.908H116.387L114.475 190.764H114.747V194.5H113.531ZM120.436 194.5L122.932 188.9H124.212L126.716 194.5H125.356L123.308 189.556H123.82L121.764 194.5H120.436ZM121.684 193.3L122.028 192.316H124.908L125.26 193.3H121.684ZM128.345 194.5V192.212L128.641 192.996L126.177 188.9H127.553L129.441 192.044H128.649L130.545 188.9H131.817L129.353 192.996L129.641 192.212V194.5H128.345Z" fill="#8A97A6"/>
<path d="M139.93 194.596C139.552 194.596 139.202 194.527 138.882 194.388C138.568 194.244 138.309 194.041 138.106 193.78L138.826 192.916C138.981 193.119 139.144 193.273 139.314 193.38C139.485 193.481 139.669 193.532 139.866 193.532C140.394 193.532 140.658 193.223 140.658 192.604V189.94H138.69V188.9H141.946V192.532C141.946 193.225 141.776 193.743 141.434 194.084C141.093 194.425 140.592 194.596 139.93 194.596ZM145.715 194.596C144.92 194.596 144.299 194.375 143.851 193.932C143.403 193.489 143.179 192.857 143.179 192.036V188.9H144.475V191.988C144.475 192.521 144.584 192.905 144.803 193.14C145.021 193.375 145.328 193.492 145.723 193.492C146.117 193.492 146.424 193.375 146.643 193.14C146.861 192.905 146.97 192.521 146.97 191.988V188.9H148.251V192.036C148.251 192.857 148.027 193.489 147.579 193.932C147.131 194.375 146.509 194.596 145.715 194.596ZM149.531 194.5V188.9H150.603L153.907 192.932H153.387V188.9H154.667V194.5H153.603L150.291 190.468H150.811V194.5H149.531Z" fill="#8A97A6"/>
<path d="M163.747 194.596C163.368 194.596 163.019 194.527 162.699 194.388C162.384 194.244 162.125 194.041 161.923 193.78L162.643 192.916C162.797 193.119 162.96 193.273 163.131 193.38C163.301 193.481 163.485 193.532 163.683 193.532C164.211 193.532 164.475 193.223 164.475 192.604V189.94H162.507V188.9H165.763V192.532C165.763 193.225 165.592 193.743 165.251 194.084C164.909 194.425 164.408 194.596 163.747 194.596ZM169.531 194.596C168.736 194.596 168.115 194.375 167.667 193.932C167.219 193.489 166.995 192.857 166.995 192.036V188.9H168.291V191.988C168.291 192.521 168.4 192.905 168.619 193.14C168.838 193.375 169.144 193.492 169.539 193.492C169.934 193.492 170.24 193.375 170.459 193.14C170.678 192.905 170.787 192.521 170.787 191.988V188.9H172.067V192.036C172.067 192.857 171.843 193.489 171.395 193.932C170.947 194.375 170.326 194.596 169.531 194.596ZM173.348 194.5V188.9H174.644V193.444H177.452V194.5H173.348Z" fill="#8A97A6"/>
<path d="M183.967 194.5L186.463 188.9H187.743L190.247 194.5H188.887L186.839 189.556H187.351L185.295 194.5H183.967ZM185.215 193.3L185.559 192.316H188.439L188.791 193.3H185.215ZM193.199 194.596C192.404 194.596 191.783 194.375 191.335 193.932C190.887 193.489 190.663 192.857 190.663 192.036V188.9H191.959V191.988C191.959 192.521 192.068 192.905 192.287 193.14C192.506 193.375 192.812 193.492 193.207 193.492C193.602 193.492 193.908 193.375 194.127 193.14C194.346 192.905 194.455 192.521 194.455 191.988V188.9H195.735V192.036C195.735 192.857 195.511 193.489 195.063 193.932C194.615 194.375 193.994 194.596 193.199 194.596ZM199.72 194.596C199.277 194.596 198.869 194.527 198.496 194.388C198.128 194.244 197.805 194.041 197.528 193.78C197.256 193.519 197.042 193.212 196.888 192.86C196.738 192.508 196.664 192.121 196.664 191.7C196.664 191.279 196.738 190.892 196.888 190.54C197.042 190.188 197.258 189.881 197.536 189.62C197.813 189.359 198.138 189.159 198.512 189.02C198.885 188.876 199.296 188.804 199.744 188.804C200.24 188.804 200.685 188.887 201.08 189.052C201.48 189.217 201.816 189.457 202.088 189.772L201.256 190.54C201.053 190.327 200.832 190.169 200.592 190.068C200.352 189.961 200.09 189.908 199.808 189.908C199.536 189.908 199.288 189.951 199.064 190.036C198.84 190.121 198.645 190.244 198.48 190.404C198.32 190.564 198.194 190.753 198.104 190.972C198.018 191.191 197.976 191.433 197.976 191.7C197.976 191.961 198.018 192.201 198.104 192.42C198.194 192.639 198.32 192.831 198.48 192.996C198.645 193.156 198.837 193.279 199.056 193.364C199.28 193.449 199.525 193.492 199.792 193.492C200.048 193.492 200.296 193.452 200.536 193.372C200.781 193.287 201.018 193.145 201.248 192.948L201.984 193.884C201.68 194.113 201.325 194.289 200.92 194.412C200.52 194.535 200.12 194.596 199.72 194.596ZM200.8 193.716V191.612H201.984V193.884L200.8 193.716Z" fill="#8A97A6"/>
<path d="M211.621 194.596C211.173 194.596 210.744 194.537 210.333 194.42C209.923 194.297 209.592 194.14 209.341 193.948L209.781 192.972C210.021 193.143 210.304 193.284 210.629 193.396C210.96 193.503 211.293 193.556 211.629 193.556C211.885 193.556 212.091 193.532 212.245 193.484C212.405 193.431 212.523 193.359 212.597 193.268C212.672 193.177 212.709 193.073 212.709 192.956C212.709 192.807 212.651 192.689 212.533 192.604C212.416 192.513 212.261 192.441 212.069 192.388C211.877 192.329 211.664 192.276 211.429 192.228C211.2 192.175 210.968 192.111 210.733 192.036C210.504 191.961 210.293 191.865 210.101 191.748C209.909 191.631 209.752 191.476 209.629 191.284C209.512 191.092 209.453 190.847 209.453 190.548C209.453 190.228 209.539 189.937 209.709 189.676C209.885 189.409 210.147 189.199 210.493 189.044C210.845 188.884 211.285 188.804 211.813 188.804C212.165 188.804 212.512 188.847 212.853 188.932C213.195 189.012 213.496 189.135 213.757 189.3L213.357 190.284C213.096 190.135 212.835 190.025 212.573 189.956C212.312 189.881 212.056 189.844 211.805 189.844C211.555 189.844 211.349 189.873 211.189 189.932C211.029 189.991 210.915 190.068 210.845 190.164C210.776 190.255 210.741 190.361 210.741 190.484C210.741 190.628 210.8 190.745 210.917 190.836C211.035 190.921 211.189 190.991 211.381 191.044C211.573 191.097 211.784 191.151 212.013 191.204C212.248 191.257 212.48 191.319 212.709 191.388C212.944 191.457 213.157 191.551 213.349 191.668C213.541 191.785 213.696 191.94 213.813 192.132C213.936 192.324 213.997 192.567 213.997 192.86C213.997 193.175 213.909 193.463 213.733 193.724C213.557 193.985 213.293 194.196 212.941 194.356C212.595 194.516 212.155 194.596 211.621 194.596ZM216.075 191.156H218.771V192.164H216.075V191.156ZM216.171 193.46H219.219V194.5H214.883V188.9H219.115V189.94H216.171V193.46ZM220.25 194.5V188.9H222.674C223.175 188.9 223.607 188.983 223.97 189.148C224.333 189.308 224.613 189.54 224.81 189.844C225.007 190.148 225.106 190.511 225.106 190.932C225.106 191.348 225.007 191.708 224.81 192.012C224.613 192.316 224.333 192.551 223.97 192.716C223.607 192.876 223.175 192.956 222.674 192.956H220.97L221.546 192.372V194.5H220.25ZM221.546 192.516L220.97 191.9H222.602C223.002 191.9 223.301 191.815 223.498 191.644C223.695 191.473 223.794 191.236 223.794 190.932C223.794 190.623 223.695 190.383 223.498 190.212C223.301 190.041 223.002 189.956 222.602 189.956H220.97L221.546 189.34V192.516Z" fill="#8A97A6"/>
<path d="M235.411 194.596C234.969 194.596 234.558 194.524 234.179 194.38C233.806 194.236 233.481 194.033 233.203 193.772C232.931 193.511 232.718 193.204 232.563 192.852C232.414 192.5 232.339 192.116 232.339 191.7C232.339 191.284 232.414 190.9 232.563 190.548C232.718 190.196 232.934 189.889 233.211 189.628C233.489 189.367 233.814 189.164 234.187 189.02C234.561 188.876 234.966 188.804 235.403 188.804C235.846 188.804 236.251 188.876 236.619 189.02C236.993 189.164 237.315 189.367 237.587 189.628C237.865 189.889 238.081 190.196 238.235 190.548C238.39 190.895 238.467 191.279 238.467 191.7C238.467 192.116 238.39 192.503 238.235 192.86C238.081 193.212 237.865 193.519 237.587 193.78C237.315 194.036 236.993 194.236 236.619 194.38C236.251 194.524 235.849 194.596 235.411 194.596ZM235.403 193.492C235.654 193.492 235.883 193.449 236.091 193.364C236.305 193.279 236.491 193.156 236.651 192.996C236.811 192.836 236.934 192.647 237.019 192.428C237.11 192.209 237.155 191.967 237.155 191.7C237.155 191.433 237.11 191.191 237.019 190.972C236.934 190.753 236.811 190.564 236.651 190.404C236.497 190.244 236.313 190.121 236.099 190.036C235.886 189.951 235.654 189.908 235.403 189.908C235.153 189.908 234.921 189.951 234.707 190.036C234.499 190.121 234.315 190.244 234.155 190.404C233.995 190.564 233.87 190.753 233.779 190.972C233.694 191.191 233.651 191.433 233.651 191.7C233.651 191.961 233.694 192.204 233.779 192.428C233.87 192.647 233.993 192.836 234.147 192.996C234.307 193.156 234.494 193.279 234.707 193.364C234.921 193.449 235.153 193.492 235.403 193.492ZM242.121 194.596C241.689 194.596 241.287 194.527 240.913 194.388C240.545 194.244 240.225 194.041 239.953 193.78C239.681 193.519 239.468 193.212 239.313 192.86C239.164 192.508 239.089 192.121 239.089 191.7C239.089 191.279 239.164 190.892 239.313 190.54C239.468 190.188 239.681 189.881 239.953 189.62C240.231 189.359 240.553 189.159 240.921 189.02C241.289 188.876 241.692 188.804 242.129 188.804C242.615 188.804 243.052 188.889 243.441 189.06C243.836 189.225 244.167 189.471 244.433 189.796L243.601 190.564C243.409 190.345 243.196 190.183 242.961 190.076C242.727 189.964 242.471 189.908 242.193 189.908C241.932 189.908 241.692 189.951 241.473 190.036C241.255 190.121 241.065 190.244 240.905 190.404C240.745 190.564 240.62 190.753 240.529 190.972C240.444 191.191 240.401 191.433 240.401 191.7C240.401 191.967 240.444 192.209 240.529 192.428C240.62 192.647 240.745 192.836 240.905 192.996C241.065 193.156 241.255 193.279 241.473 193.364C241.692 193.449 241.932 193.492 242.193 193.492C242.471 193.492 242.727 193.439 242.961 193.332C243.196 193.22 243.409 193.052 243.601 192.828L244.433 193.596C244.167 193.921 243.836 194.169 243.441 194.34C243.052 194.511 242.612 194.596 242.121 194.596ZM246.414 194.5V189.956H244.622V188.9H249.502V189.956H247.71V194.5H246.414Z" fill="#8A97A6"/>
<path d="M256.445 194.5V188.9H257.517L260.821 192.932H260.301V188.9H261.581V194.5H260.517L257.205 190.468H257.725V194.5H256.445ZM265.626 194.596C265.184 194.596 264.773 194.524 264.394 194.38C264.021 194.236 263.696 194.033 263.418 193.772C263.146 193.511 262.933 193.204 262.778 192.852C262.629 192.5 262.554 192.116 262.554 191.7C262.554 191.284 262.629 190.9 262.778 190.548C262.933 190.196 263.149 189.889 263.426 189.628C263.704 189.367 264.029 189.164 264.402 189.02C264.776 188.876 265.181 188.804 265.618 188.804C266.061 188.804 266.466 188.876 266.834 189.02C267.208 189.164 267.53 189.367 267.802 189.628C268.08 189.889 268.296 190.196 268.45 190.548C268.605 190.895 268.682 191.279 268.682 191.7C268.682 192.116 268.605 192.503 268.45 192.86C268.296 193.212 268.08 193.519 267.802 193.78C267.53 194.036 267.208 194.236 266.834 194.38C266.466 194.524 266.064 194.596 265.626 194.596ZM265.618 193.492C265.869 193.492 266.098 193.449 266.306 193.364C266.52 193.279 266.706 193.156 266.866 192.996C267.026 192.836 267.149 192.647 267.234 192.428C267.325 192.209 267.37 191.967 267.37 191.7C267.37 191.433 267.325 191.191 267.234 190.972C267.149 190.753 267.026 190.564 266.866 190.404C266.712 190.244 266.528 190.121 266.314 190.036C266.101 189.951 265.869 189.908 265.618 189.908C265.368 189.908 265.136 189.951 264.922 190.036C264.714 190.121 264.53 190.244 264.37 190.404C264.21 190.564 264.085 190.753 263.994 190.972C263.909 191.191 263.866 191.433 263.866 191.7C263.866 191.961 263.909 192.204 263.994 192.428C264.085 192.647 264.208 192.836 264.362 192.996C264.522 193.156 264.709 193.279 264.922 193.364C265.136 193.449 265.368 193.492 265.618 193.492ZM271.157 194.5L268.74 188.9H270.141L272.253 193.86H271.429L273.573 188.9H274.861L272.437 194.5H271.157Z" fill="#8A97A6"/>
<path d="M281.555 194.5V188.9H284.099C284.707 188.9 285.243 189.017 285.707 189.252C286.171 189.481 286.533 189.804 286.795 190.22C287.056 190.636 287.187 191.129 287.187 191.7C287.187 192.265 287.056 192.759 286.795 193.18C286.533 193.596 286.171 193.921 285.707 194.156C285.243 194.385 284.707 194.5 284.099 194.5H281.555ZM282.851 193.436H284.035C284.408 193.436 284.731 193.367 285.003 193.228C285.28 193.084 285.493 192.881 285.643 192.62C285.797 192.359 285.875 192.052 285.875 191.7C285.875 191.343 285.797 191.036 285.643 190.78C285.493 190.519 285.28 190.319 285.003 190.18C284.731 190.036 284.408 189.964 284.035 189.964H282.851V193.436ZM289.356 191.156H292.052V192.164H289.356V191.156ZM289.452 193.46H292.5V194.5H288.164V188.9H292.396V189.94H289.452V193.46ZM296.211 194.596C295.779 194.596 295.377 194.527 295.003 194.388C294.635 194.244 294.315 194.041 294.043 193.78C293.771 193.519 293.558 193.212 293.403 192.86C293.254 192.508 293.179 192.121 293.179 191.7C293.179 191.279 293.254 190.892 293.403 190.54C293.558 190.188 293.771 189.881 294.043 189.62C294.321 189.359 294.643 189.159 295.011 189.02C295.379 188.876 295.782 188.804 296.219 188.804C296.705 188.804 297.142 188.889 297.531 189.06C297.926 189.225 298.257 189.471 298.523 189.796L297.691 190.564C297.499 190.345 297.286 190.183 297.051 190.076C296.817 189.964 296.561 189.908 296.283 189.908C296.022 189.908 295.782 189.951 295.563 190.036C295.345 190.121 295.155 190.244 294.995 190.404C294.835 190.564 294.71 190.753 294.619 190.972C294.534 191.191 294.491 191.433 294.491 191.7C294.491 191.967 294.534 192.209 294.619 192.428C294.71 192.647 294.835 192.836 294.995 192.996C295.155 193.156 295.345 193.279 295.563 193.364C295.782 193.449 296.022 193.492 296.283 193.492C296.561 193.492 296.817 193.439 297.051 193.332C297.286 193.22 297.499 193.052 297.691 192.828L298.523 193.596C298.257 193.921 297.926 194.169 297.531 194.34C297.142 194.511 296.702 194.596 296.211 194.596Z" fill="#8A97A6"/>
<path d="M2.01584 16.5V11.38L2.57584 11.94H0.895844V10.9H3.31184V16.5H2.01584ZM4.22066 15.324V14.452L6.86066 10.9H8.22066L5.63666 14.452L5.00466 14.268H9.41266V15.324H4.22066ZM7.23666 16.5V15.324L7.27666 14.268V13.22H8.50066V16.5H7.23666Z" fill="#8A97A6"/>
<path d="M2.41428 40.5V35.38L2.97428 35.94H1.29428V34.9H3.71028V40.5H2.41428ZM4.63509 40.5V39.66L6.79509 37.62C6.96576 37.4653 7.09109 37.3267 7.17109 37.204C7.25109 37.0813 7.30443 36.9693 7.33109 36.868C7.36309 36.7667 7.37909 36.6733 7.37909 36.588C7.37909 36.364 7.30176 36.1933 7.14709 36.076C6.99776 35.9533 6.77643 35.892 6.48309 35.892C6.24843 35.892 6.02976 35.9373 5.82709 36.028C5.62976 36.1187 5.46176 36.26 5.32309 36.452L4.37909 35.844C4.59243 35.524 4.89109 35.2707 5.27509 35.084C5.65909 34.8973 6.10176 34.804 6.60309 34.804C7.01909 34.804 7.38176 34.8733 7.69109 35.012C8.00576 35.1453 8.24843 35.3347 8.41909 35.58C8.59509 35.8253 8.68309 36.1187 8.68309 36.46C8.68309 36.6413 8.65909 36.8227 8.61109 37.004C8.56843 37.18 8.47776 37.3667 8.33909 37.564C8.20576 37.7613 8.00843 37.9827 7.74709 38.228L5.95509 39.916L5.70709 39.444H8.86709V40.5H4.63509Z" fill="#8A97A6"/>
<path d="M2.05881 64.5V59.38L2.61881 59.94H0.938813V58.9H3.35481V64.5H2.05881ZM6.72763 64.596C6.26896 64.596 5.85829 64.484 5.49563 64.26C5.13296 64.0307 4.84763 63.7 4.63963 63.268C4.43163 62.836 4.32763 62.3133 4.32763 61.7C4.32763 61.0867 4.43163 60.564 4.63963 60.132C4.84763 59.7 5.13296 59.372 5.49563 59.148C5.85829 58.9187 6.26896 58.804 6.72763 58.804C7.19163 58.804 7.60229 58.9187 7.95963 59.148C8.32229 59.372 8.60763 59.7 8.81563 60.132C9.02363 60.564 9.12763 61.0867 9.12763 61.7C9.12763 62.3133 9.02363 62.836 8.81563 63.268C8.60763 63.7 8.32229 64.0307 7.95963 64.26C7.60229 64.484 7.19163 64.596 6.72763 64.596ZM6.72763 63.5C6.94629 63.5 7.13563 63.4387 7.29563 63.316C7.46096 63.1933 7.58896 62.9987 7.67963 62.732C7.77563 62.4653 7.82363 62.1213 7.82363 61.7C7.82363 61.2787 7.77563 60.9347 7.67963 60.668C7.58896 60.4013 7.46096 60.2067 7.29563 60.084C7.13563 59.9613 6.94629 59.9 6.72763 59.9C6.51429 59.9 6.32496 59.9613 6.15963 60.084C5.99963 60.2067 5.87163 60.4013 5.77563 60.668C5.68496 60.9347 5.63963 61.2787 5.63963 61.7C5.63963 62.1213 5.68496 62.4653 5.77563 62.732C5.87163 62.9987 5.99963 63.1933 6.15963 63.316C6.32496 63.4387 6.51429 63.5 6.72763 63.5Z" fill="#8A97A6"/>
<path d="M5.15544 88.596C4.6861 88.596 4.27544 88.5267 3.92344 88.388C3.57144 88.244 3.29677 88.044 3.09944 87.788C2.9021 87.5267 2.80344 87.2227 2.80344 86.876C2.80344 86.5293 2.89944 86.236 3.09144 85.996C3.28877 85.7507 3.56344 85.5667 3.91544 85.444C4.26744 85.316 4.68077 85.252 5.15544 85.252C5.63544 85.252 6.05144 85.316 6.40344 85.444C6.76077 85.5667 7.03544 85.7507 7.22744 85.996C7.42477 86.236 7.52344 86.5293 7.52344 86.876C7.52344 87.2227 7.42477 87.5267 7.22744 87.788C7.0301 88.044 6.75277 88.244 6.39544 88.388C6.04344 88.5267 5.6301 88.596 5.15544 88.596ZM5.15544 87.644C5.48077 87.644 5.73677 87.572 5.92344 87.428C6.11544 87.284 6.21144 87.0867 6.21144 86.836C6.21144 86.5853 6.11544 86.3907 5.92344 86.252C5.73677 86.108 5.48077 86.036 5.15544 86.036C4.83544 86.036 4.5821 86.108 4.39544 86.252C4.20877 86.3907 4.11544 86.5853 4.11544 86.836C4.11544 87.0867 4.20877 87.284 4.39544 87.428C4.5821 87.572 4.83544 87.644 5.15544 87.644ZM5.15544 85.908C4.72344 85.908 4.34477 85.8493 4.01944 85.732C3.69944 85.6147 3.44877 85.444 3.26744 85.22C3.09144 84.9907 3.00344 84.7187 3.00344 84.404C3.00344 84.0733 3.0941 83.7907 3.27544 83.556C3.45677 83.316 3.7101 83.132 4.03544 83.004C4.36077 82.8707 4.7341 82.804 5.15544 82.804C5.58744 82.804 5.96344 82.8707 6.28344 83.004C6.60877 83.132 6.8621 83.316 7.04344 83.556C7.2301 83.7907 7.32344 84.0733 7.32344 84.404C7.32344 84.7187 7.23277 84.9907 7.05144 85.22C6.87544 85.444 6.62477 85.6147 6.29944 85.732C5.9741 85.8493 5.59277 85.908 5.15544 85.908ZM5.15544 85.148C5.42744 85.148 5.64077 85.0867 5.79544 84.964C5.95544 84.8413 6.03544 84.6733 6.03544 84.46C6.03544 84.236 5.95277 84.0627 5.78744 83.94C5.62744 83.8173 5.41677 83.756 5.15544 83.756C4.89944 83.756 4.69144 83.8173 4.53144 83.94C4.37144 84.0627 4.29144 84.236 4.29144 84.46C4.29144 84.6733 4.36877 84.8413 4.52344 84.964C4.6781 85.0867 4.88877 85.148 5.15544 85.148Z" fill="#8A97A6"/>
<path d="M5.43319 112.596C4.92119 112.596 4.47585 112.489 4.09719 112.276C3.72385 112.063 3.43585 111.751 3.23319 111.34C3.03052 110.929 2.92919 110.423 2.92919 109.82C2.92919 109.175 3.04919 108.628 3.28919 108.18C3.53452 107.732 3.87052 107.391 4.29719 107.156C4.72919 106.921 5.22519 106.804 5.78519 106.804C6.08385 106.804 6.36919 106.836 6.64119 106.9C6.91319 106.964 7.14785 107.06 7.34519 107.188L6.86519 108.14C6.71052 108.033 6.54519 107.961 6.36919 107.924C6.19319 107.881 6.00919 107.86 5.81719 107.86C5.33185 107.86 4.94785 108.007 4.66519 108.3C4.38252 108.593 4.24119 109.028 4.24119 109.604C4.24119 109.7 4.24119 109.807 4.24119 109.924C4.24652 110.041 4.26252 110.159 4.28919 110.276L3.92919 109.94C4.03052 109.732 4.16119 109.559 4.32119 109.42C4.48119 109.276 4.67052 109.169 4.88919 109.1C5.11319 109.025 5.35852 108.988 5.62519 108.988C5.98785 108.988 6.31319 109.06 6.60119 109.204C6.88919 109.348 7.11852 109.551 7.28919 109.812C7.46519 110.073 7.55319 110.38 7.55319 110.732C7.55319 111.111 7.45719 111.441 7.26519 111.724C7.07852 112.001 6.82519 112.217 6.50519 112.372C6.19052 112.521 5.83319 112.596 5.43319 112.596ZM5.36119 111.628C5.54252 111.628 5.70252 111.596 5.84119 111.532C5.98519 111.463 6.09719 111.364 6.17719 111.236C6.25719 111.108 6.29719 110.961 6.29719 110.796C6.29719 110.54 6.20919 110.337 6.03319 110.188C5.86252 110.033 5.63319 109.956 5.34519 109.956C5.15319 109.956 4.98519 109.993 4.84119 110.068C4.69719 110.137 4.58252 110.236 4.49719 110.364C4.41719 110.487 4.37719 110.631 4.37719 110.796C4.37719 110.956 4.41719 111.1 4.49719 111.228C4.57719 111.351 4.68919 111.449 4.83319 111.524C4.97719 111.593 5.15319 111.628 5.36119 111.628Z" fill="#8A97A6"/>
<path d="M2.65425 135.324V134.452L5.29425 130.9H6.65425L4.07025 134.452L3.43825 134.268H7.84625V135.324H2.65425ZM5.67025 136.5V135.324L5.71025 134.268V133.22H6.93425V136.5H5.67025Z" fill="#8A97A6"/>
<path d="M3.06869 160.5V159.66L5.22869 157.62C5.39935 157.465 5.52469 157.327 5.60469 157.204C5.68469 157.081 5.73802 156.969 5.76469 156.868C5.79669 156.767 5.81269 156.673 5.81269 156.588C5.81269 156.364 5.73535 156.193 5.58069 156.076C5.43135 155.953 5.21002 155.892 4.91669 155.892C4.68202 155.892 4.46335 155.937 4.26069 156.028C4.06335 156.119 3.89535 156.26 3.75669 156.452L2.81269 155.844C3.02602 155.524 3.32469 155.271 3.70869 155.084C4.09269 154.897 4.53535 154.804 5.03669 154.804C5.45269 154.804 5.81535 154.873 6.12469 155.012C6.43935 155.145 6.68202 155.335 6.85269 155.58C7.02869 155.825 7.11669 156.119 7.11669 156.46C7.11669 156.641 7.09269 156.823 7.04469 157.004C7.00202 157.18 6.91135 157.367 6.77269 157.564C6.63935 157.761 6.44202 157.983 6.18069 158.228L4.38869 159.916L4.14069 159.444H7.30069V160.5H3.06869Z" fill="#8A97A6"/>
<line x1="11.1094" y1="4.5" x2="11.1094" y2="182.5" stroke="#CED4DA"/>
<line x1="11.1094" y1="182" x2="300.109" y2="182" stroke="#CED4DA" stroke-linecap="round"/>
<path d="M11.7188 14H301.719" stroke="#ECEEF0" stroke-miterlimit="16" stroke-dasharray="4 2"/>
<path d="M11.7188 38H301.719" stroke="#ECEEF0" stroke-miterlimit="16" stroke-dasharray="4 2"/>
<path d="M11.7188 62H301.719" stroke="#ECEEF0" stroke-miterlimit="16" stroke-dasharray="4 2"/>
<path d="M11.7188 86H301.719" stroke="#ECEEF0" stroke-miterlimit="16" stroke-dasharray="4 2"/>
<path d="M11.7188 110H301.719" stroke="#ECEEF0" stroke-miterlimit="16" stroke-dasharray="4 2"/>
<path d="M11.7188 134H301.719" stroke="#ECEEF0" stroke-miterlimit="16" stroke-dasharray="4 2"/>
<path d="M11.7188 158H301.719" stroke="#ECEEF0" stroke-miterlimit="16" stroke-dasharray="4 2"/>
<line x1="25.0469" y1="4.5" x2="25.0469" y2="182.5" stroke="#ECEEF0" stroke-miterlimit="16" stroke-dasharray="4 2"/>
<line x1="49.0469" y1="4.5" x2="49.0469" y2="182.5" stroke="#ECEEF0" stroke-miterlimit="16" stroke-dasharray="4 2"/>
<line x1="73.0469" y1="4.5" x2="73.0469" y2="182.5" stroke="#ECEEF0" stroke-miterlimit="16" stroke-dasharray="4 2"/>
<line x1="97.0469" y1="4.5" x2="97.0469" y2="182.5" stroke="#ECEEF0" stroke-miterlimit="16" stroke-dasharray="4 2"/>
<line x1="121.047" y1="4.5" x2="121.047" y2="182.5" stroke="#ECEEF0" stroke-miterlimit="16" stroke-dasharray="4 2"/>
<line x1="145.047" y1="4.5" x2="145.047" y2="182.5" stroke="#ECEEF0" stroke-miterlimit="16" stroke-dasharray="4 2"/>
<line x1="169.047" y1="4.5" x2="169.047" y2="182.5" stroke="#ECEEF0" stroke-miterlimit="16" stroke-dasharray="4 2"/>
<line x1="193.047" y1="4.5" x2="193.047" y2="182.5" stroke="#ECEEF0" stroke-miterlimit="16" stroke-dasharray="4 2"/>
<line x1="217.047" y1="4.5" x2="217.047" y2="182.5" stroke="#ECEEF0" stroke-miterlimit="16" stroke-dasharray="4 2"/>
<line x1="241.047" y1="4.5" x2="241.047" y2="182.5" stroke="#ECEEF0" stroke-miterlimit="16" stroke-dasharray="4 2"/>
<line x1="265.047" y1="4.5" x2="265.047" y2="182.5" stroke="#ECEEF0" stroke-miterlimit="16" stroke-dasharray="4 2"/>
<line x1="289.047" y1="0.5" x2="289.047" y2="182.5" stroke="#ECEEF0" stroke-miterlimit="16" stroke-dasharray="4 2"/>
<rect x="17.4219" y="128.5" width="8" height="54" fill="#4CAC8F"/>
<rect x="25.4219" y="112.5" width="8" height="70" fill="#689FF1"/>
<rect x="41.4219" y="118.5" width="8" height="64" fill="#4CAC8F"/>
<rect x="49.4219" y="112.5" width="8" height="70" fill="#689FF1"/>
<rect x="65.4219" y="93.5" width="8" height="89" fill="#4CAC8F"/>
<rect x="73.4219" y="103.5" width="8" height="79" fill="#689FF1"/>
<rect x="89.4219" y="80.5" width="8" height="102" fill="#4CAC8F"/>
<rect x="97.4219" y="93.5" width="8" height="89" fill="#689FF1"/>
<rect x="113.422" y="60.5" width="8" height="122" fill="#4CAC8F"/>
<rect x="121.422" y="128.5" width="8" height="54" fill="#689FF1"/>
<rect x="137.422" y="46.5" width="8" height="136" fill="#4CAC8F"/>
<rect x="145.422" y="118.5" width="8" height="64" fill="#689FF1"/>
<rect x="161.422" y="29.5" width="8" height="153" fill="#4CAC8F"/>
<rect x="169.422" y="137.5" width="8" height="45" fill="#689FF1"/>
<rect x="185.422" y="35.5" width="8" height="147" fill="#4CAC8F"/>
<rect x="193.422" y="126.5" width="8" height="56" fill="#689FF1"/>
<rect x="209.422" y="31.5" width="8" height="151" fill="#4CAC8F"/>
<rect x="217.422" y="145.5" width="8" height="37" fill="#689FF1"/>
<rect x="233.422" y="71.5" width="8" height="111" fill="#4CAC8F"/>
<rect x="241.422" y="84.5" width="8" height="98" fill="#689FF1"/>
<rect x="257.422" y="92.5" width="8" height="90" fill="#4CAC8F"/>
<rect x="265.422" y="98.5" width="8" height="84" fill="#689FF1"/>
<rect x="281.422" y="84.5" width="8" height="98" fill="#4CAC8F"/>
<rect x="289.422" y="103.5" width="8" height="79" fill="#689FF1"/>
<rect x="193.672" y="14.5" width="55" height="15" rx="4" fill="#4CAC8F"/>
<path d="M198.848 24.5V19.38L199.408 19.94H197.728V18.9H200.144V24.5H198.848ZM201.069 24.5V23.66L203.229 21.62C203.399 21.4653 203.525 21.3267 203.605 21.204C203.685 21.0813 203.738 20.9693 203.765 20.868C203.797 20.7667 203.813 20.6733 203.813 20.588C203.813 20.364 203.735 20.1933 203.581 20.076C203.431 19.9533 203.21 19.892 202.917 19.892C202.682 19.892 202.463 19.9373 202.261 20.028C202.063 20.1187 201.895 20.26 201.757 20.452L200.813 19.844C201.026 19.524 201.325 19.2707 201.709 19.084C202.093 18.8973 202.535 18.804 203.037 18.804C203.453 18.804 203.815 18.8733 204.125 19.012C204.439 19.1453 204.682 19.3347 204.853 19.58C205.029 19.8253 205.117 20.1187 205.117 20.46C205.117 20.6413 205.093 20.8227 205.045 21.004C205.002 21.18 204.911 21.3667 204.773 21.564C204.639 21.7613 204.442 21.9827 204.181 22.228L202.389 23.916L202.141 23.444H205.301V24.5H201.069ZM210.005 24.596C209.616 24.596 209.229 24.5453 208.845 24.444C208.466 24.3373 208.141 24.188 207.869 23.996L208.381 23.004C208.594 23.1587 208.84 23.2813 209.117 23.372C209.4 23.4627 209.685 23.508 209.973 23.508C210.298 23.508 210.554 23.444 210.741 23.316C210.928 23.188 211.021 23.0093 211.021 22.78C211.021 22.636 210.984 22.508 210.909 22.396C210.834 22.284 210.701 22.1987 210.509 22.14C210.322 22.0813 210.058 22.052 209.717 22.052H208.285L208.573 18.9H211.989V19.94H209.037L209.709 19.348L209.509 21.596L208.837 21.004H210.021C210.576 21.004 211.021 21.0813 211.357 21.236C211.698 21.3853 211.946 21.5907 212.101 21.852C212.256 22.1133 212.333 22.4093 212.333 22.74C212.333 23.0707 212.25 23.3773 212.085 23.66C211.92 23.9373 211.664 24.164 211.317 24.34C210.976 24.5107 210.538 24.596 210.005 24.596ZM215.363 24.596C214.851 24.596 214.406 24.4893 214.027 24.276C213.654 24.0627 213.366 23.7507 213.163 23.34C212.96 22.9293 212.859 22.4227 212.859 21.82C212.859 21.1747 212.979 20.628 213.219 20.18C213.464 19.732 213.8 19.3907 214.227 19.156C214.659 18.9213 215.155 18.804 215.715 18.804C216.014 18.804 216.299 18.836 216.571 18.9C216.843 18.964 217.078 19.06 217.275 19.188L216.795 20.14C216.64 20.0333 216.475 19.9613 216.299 19.924C216.123 19.8813 215.939 19.86 215.747 19.86C215.262 19.86 214.878 20.0067 214.595 20.3C214.312 20.5933 214.171 21.028 214.171 21.604C214.171 21.7 214.171 21.8067 214.171 21.924C214.176 22.0413 214.192 22.1587 214.219 22.276L213.859 21.94C213.96 21.732 214.091 21.5587 214.251 21.42C214.411 21.276 214.6 21.1693 214.819 21.1C215.043 21.0253 215.288 20.988 215.555 20.988C215.918 20.988 216.243 21.06 216.531 21.204C216.819 21.348 217.048 21.5507 217.219 21.812C217.395 22.0733 217.483 22.38 217.483 22.732C217.483 23.1107 217.387 23.4413 217.195 23.724C217.008 24.0013 216.755 24.2173 216.435 24.372C216.12 24.5213 215.763 24.596 215.363 24.596ZM215.291 23.628C215.472 23.628 215.632 23.596 215.771 23.532C215.915 23.4627 216.027 23.364 216.107 23.236C216.187 23.108 216.227 22.9613 216.227 22.796C216.227 22.54 216.139 22.3373 215.963 22.188C215.792 22.0333 215.563 21.956 215.275 21.956C215.083 21.956 214.915 21.9933 214.771 22.068C214.627 22.1373 214.512 22.236 214.427 22.364C214.347 22.4867 214.307 22.6307 214.307 22.796C214.307 22.956 214.347 23.1 214.427 23.228C214.507 23.3507 214.619 23.4493 214.763 23.524C214.907 23.5933 215.083 23.628 215.291 23.628ZM219.769 24.596C219.379 24.596 218.993 24.5453 218.609 24.444C218.225 24.3373 217.899 24.188 217.633 23.996L218.137 23.004C218.35 23.1587 218.598 23.2813 218.881 23.372C219.163 23.4627 219.449 23.508 219.737 23.508C220.062 23.508 220.318 23.444 220.505 23.316C220.691 23.188 220.785 23.012 220.785 22.788C220.785 22.5747 220.702 22.4067 220.537 22.284C220.371 22.1613 220.105 22.1 219.737 22.1H219.145V21.244L220.705 19.476L220.849 19.94H217.913V18.9H221.833V19.74L220.281 21.508L219.625 21.132H220.001C220.689 21.132 221.209 21.2867 221.561 21.596C221.913 21.9053 222.089 22.3027 222.089 22.788C222.089 23.1027 222.006 23.3987 221.841 23.676C221.675 23.948 221.422 24.1693 221.081 24.34C220.739 24.5107 220.302 24.596 219.769 24.596ZM223.423 24.564C223.21 24.564 223.026 24.492 222.871 24.348C222.722 24.1987 222.647 24.0093 222.647 23.78C222.647 23.5507 222.722 23.3667 222.871 23.228C223.026 23.084 223.21 23.012 223.423 23.012C223.642 23.012 223.826 23.084 223.975 23.228C224.124 23.3667 224.199 23.5507 224.199 23.78C224.199 24.0093 224.124 24.1987 223.975 24.348C223.826 24.492 223.642 24.564 223.423 24.564ZM227.079 24.596C226.621 24.596 226.21 24.484 225.847 24.26C225.485 24.0307 225.199 23.7 224.991 23.268C224.783 22.836 224.679 22.3133 224.679 21.7C224.679 21.0867 224.783 20.564 224.991 20.132C225.199 19.7 225.485 19.372 225.847 19.148C226.21 18.9187 226.621 18.804 227.079 18.804C227.543 18.804 227.954 18.9187 228.311 19.148C228.674 19.372 228.959 19.7 229.167 20.132C229.375 20.564 229.479 21.0867 229.479 21.7C229.479 22.3133 229.375 22.836 229.167 23.268C228.959 23.7 228.674 24.0307 228.311 24.26C227.954 24.484 227.543 24.596 227.079 24.596ZM227.079 23.5C227.298 23.5 227.487 23.4387 227.647 23.316C227.813 23.1933 227.941 22.9987 228.031 22.732C228.127 22.4653 228.175 22.1213 228.175 21.7C228.175 21.2787 228.127 20.9347 228.031 20.668C227.941 20.4013 227.813 20.2067 227.647 20.084C227.487 19.9613 227.298 19.9 227.079 19.9C226.866 19.9 226.677 19.9613 226.511 20.084C226.351 20.2067 226.223 20.4013 226.127 20.668C226.037 20.9347 225.991 21.2787 225.991 21.7C225.991 22.1213 226.037 22.4653 226.127 22.732C226.223 22.9987 226.351 23.1933 226.511 23.316C226.677 23.4387 226.866 23.5 227.079 23.5ZM232.509 24.596C232.05 24.596 231.64 24.484 231.277 24.26C230.914 24.0307 230.629 23.7 230.421 23.268C230.213 22.836 230.109 22.3133 230.109 21.7C230.109 21.0867 230.213 20.564 230.421 20.132C230.629 19.7 230.914 19.372 231.277 19.148C231.64 18.9187 232.05 18.804 232.509 18.804C232.973 18.804 233.384 18.9187 233.741 19.148C234.104 19.372 234.389 19.7 234.597 20.132C234.805 20.564 234.909 21.0867 234.909 21.7C234.909 22.3133 234.805 22.836 234.597 23.268C234.389 23.7 234.104 24.0307 233.741 24.26C233.384 24.484 232.973 24.596 232.509 24.596ZM232.509 23.5C232.728 23.5 232.917 23.4387 233.077 23.316C233.242 23.1933 233.37 22.9987 233.461 22.732C233.557 22.4653 233.605 22.1213 233.605 21.7C233.605 21.2787 233.557 20.9347 233.461 20.668C233.37 20.4013 233.242 20.2067 233.077 20.084C232.917 19.9613 232.728 19.9 232.509 19.9C232.296 19.9 232.106 19.9613 231.941 20.084C231.781 20.2067 231.653 20.4013 231.557 20.668C231.466 20.9347 231.421 21.2787 231.421 21.7C231.421 22.1213 231.466 22.4653 231.557 22.732C231.653 22.9987 231.781 23.1933 231.941 23.316C232.106 23.4387 232.296 23.5 232.509 23.5ZM237.732 22.588V21.916H242.044V22.588H237.732ZM237.732 21.484V20.812H242.044V21.484H237.732ZM241.54 24.596C241.103 24.596 240.698 24.5267 240.324 24.388C239.956 24.244 239.636 24.0413 239.364 23.78C239.092 23.5187 238.882 23.212 238.732 22.86C238.583 22.508 238.508 22.1213 238.508 21.7C238.508 21.2787 238.583 20.892 238.732 20.54C238.882 20.188 239.092 19.8813 239.364 19.62C239.636 19.3587 239.956 19.1587 240.324 19.02C240.698 18.876 241.103 18.804 241.54 18.804C242.026 18.804 242.466 18.8893 242.86 19.06C243.255 19.2253 243.583 19.4707 243.844 19.796L243.02 20.564C242.828 20.3453 242.615 20.1827 242.38 20.076C242.146 19.964 241.887 19.908 241.604 19.908C241.343 19.908 241.103 19.9507 240.884 20.036C240.666 20.1213 240.476 20.244 240.316 20.404C240.156 20.564 240.031 20.7533 239.94 20.972C239.855 21.1907 239.812 21.4333 239.812 21.7C239.812 21.9667 239.855 22.2093 239.94 22.428C240.031 22.6467 240.156 22.836 240.316 22.996C240.476 23.156 240.666 23.2787 240.884 23.364C241.103 23.4493 241.343 23.492 241.604 23.492C241.887 23.492 242.146 23.4387 242.38 23.332C242.615 23.22 242.828 23.052 243.02 22.828L243.844 23.596C243.583 23.9213 243.255 24.1693 242.86 24.34C242.466 24.5107 242.026 24.596 241.54 24.596Z" fill="white"/>
</svg>
