<svg width="100" height="100" viewBox="0 0 100 100" fill="none" xmlns="http://www.w3.org/2000/svg">
<path d="M15.9001 86.5677C6.40062 77.7093 0.72118 65.5019 0.0640325 52.5297C-0.593115 39.5574 3.82361 26.8386 12.3792 17.0655C20.9349 7.29251 32.9579 1.23243 45.9031 0.168132C58.8483 -0.896161 71.6996 3.11888 81.7365 11.3633L75.3892 19.0906C67.3596 12.4951 57.0786 9.28307 46.7224 10.1345C36.3663 10.9859 26.7479 15.834 19.9034 23.6524C13.0589 31.4708 9.52551 41.6459 10.0512 52.0237C10.5769 62.4015 15.1205 72.1674 22.7201 79.2542L15.9001 86.5677Z" fill="#4CAC8F"/>
<path d="M100 50C100 59.7553 97.1463 69.2976 91.7904 77.4511C86.4345 85.6047 78.8104 92.0134 69.8574 95.8877C60.9044 99.762 51.0136 100.933 41.4035 99.2555C31.7935 97.5782 22.884 93.1264 15.7726 86.4484L22.6181 79.1587C28.3072 84.5011 35.4348 88.0626 43.1228 89.4044C50.8109 90.7462 58.7235 89.8096 65.8859 86.7102C73.0483 83.6107 79.1476 78.4838 83.4323 71.9609C87.717 65.4381 90 57.8043 90 50H100Z" fill="#8A97A6"/>
<path d="M81.466 11.1427C87.1859 15.7745 91.8126 21.612 95.0159 28.2385L86.0128 32.5908C83.4501 27.2896 79.7487 22.6196 75.1728 18.9142L81.466 11.1427Z" fill="#E4B200"/>
<path d="M94.9397 28.0815C95.8581 29.9645 96.6573 31.9034 97.3325 33.8867L87.866 37.1094C87.3258 35.5227 86.6865 33.9716 85.9518 32.4652L94.9397 28.0815Z" fill="#E4187A"/>
<path d="M97.2759 33.7216C99.0778 38.9545 99.9983 44.4502 100 49.9845L90 49.9876C89.9986 45.5601 89.2622 41.1636 87.8207 36.9773L97.2759 33.7216Z" fill="#4250CE"/>
<path d="M30.872 46.236V44.928L34.832 39.6H36.872L32.996 44.928L32.048 44.652H38.66V46.236H30.872ZM35.396 48V46.236L35.456 44.652V43.08H37.292V48H35.396ZM42.1583 39.456C42.9343 39.456 43.6023 39.616 44.1623 39.936C44.7223 40.256 45.1543 40.724 45.4583 41.34C45.7623 41.948 45.9143 42.708 45.9143 43.62C45.9143 44.588 45.7303 45.408 45.3623 46.08C45.0023 46.752 44.5023 47.264 43.8623 47.616C43.2223 47.968 42.4783 48.144 41.6303 48.144C41.1903 48.144 40.7663 48.096 40.3583 48C39.9503 47.904 39.5983 47.76 39.3023 47.568L40.0223 46.14C40.2543 46.3 40.5023 46.412 40.7663 46.476C41.0303 46.532 41.3063 46.56 41.5943 46.56C42.3143 46.56 42.8863 46.34 43.3103 45.9C43.7423 45.46 43.9583 44.808 43.9583 43.944C43.9583 43.8 43.9543 43.64 43.9463 43.464C43.9383 43.288 43.9183 43.112 43.8863 42.936L44.4143 43.44C44.2783 43.752 44.0863 44.016 43.8383 44.232C43.5903 44.44 43.3023 44.6 42.9743 44.712C42.6463 44.816 42.2783 44.868 41.8703 44.868C41.3343 44.868 40.8463 44.76 40.4063 44.544C39.9743 44.328 39.6263 44.024 39.3623 43.632C39.1063 43.24 38.9783 42.78 38.9783 42.252C38.9783 41.676 39.1183 41.18 39.3983 40.764C39.6863 40.348 40.0703 40.028 40.5503 39.804C41.0383 39.572 41.5743 39.456 42.1583 39.456ZM42.2783 40.908C41.9983 40.908 41.7543 40.96 41.5463 41.064C41.3383 41.16 41.1743 41.304 41.0543 41.496C40.9343 41.68 40.8743 41.9 40.8743 42.156C40.8743 42.54 41.0023 42.848 41.2583 43.08C41.5223 43.304 41.8703 43.416 42.3023 43.416C42.5823 43.416 42.8303 43.364 43.0463 43.26C43.2703 43.148 43.4423 42.996 43.5623 42.804C43.6823 42.612 43.7423 42.396 43.7423 42.156C43.7423 41.916 43.6823 41.704 43.5623 41.52C43.4503 41.328 43.2863 41.18 43.0703 41.076C42.8543 40.964 42.5903 40.908 42.2783 40.908ZM48.0589 48L53.7949 39.6H55.2229L49.4869 48H48.0589ZM48.7909 44.136C48.3829 44.136 48.0229 44.044 47.7109 43.86C47.3989 43.668 47.1509 43.4 46.9669 43.056C46.7909 42.704 46.7029 42.292 46.7029 41.82C46.7029 41.348 46.7909 40.94 46.9669 40.596C47.1509 40.252 47.3989 39.984 47.7109 39.792C48.0229 39.6 48.3829 39.504 48.7909 39.504C49.1989 39.504 49.5589 39.6 49.8709 39.792C50.1829 39.984 50.4269 40.252 50.6029 40.596C50.7789 40.94 50.8669 41.348 50.8669 41.82C50.8669 42.292 50.7789 42.704 50.6029 43.056C50.4269 43.4 50.1829 43.668 49.8709 43.86C49.5589 44.044 49.1989 44.136 48.7909 44.136ZM48.7909 43.152C49.0549 43.152 49.2669 43.044 49.4269 42.828C49.5869 42.604 49.6669 42.268 49.6669 41.82C49.6669 41.372 49.5869 41.04 49.4269 40.824C49.2669 40.6 49.0549 40.488 48.7909 40.488C48.5349 40.488 48.3229 40.6 48.1549 40.824C47.9949 41.04 47.9149 41.372 47.9149 41.82C47.9149 42.26 47.9949 42.592 48.1549 42.816C48.3229 43.04 48.5349 43.152 48.7909 43.152ZM54.4909 48.096C54.0909 48.096 53.7309 48.004 53.4109 47.82C53.0989 47.628 52.8549 47.36 52.6789 47.016C52.5029 46.664 52.4149 46.252 52.4149 45.78C52.4149 45.308 52.5029 44.9 52.6789 44.556C52.8549 44.212 53.0989 43.944 53.4109 43.752C53.7309 43.56 54.0909 43.464 54.4909 43.464C54.9069 43.464 55.2709 43.56 55.5829 43.752C55.8949 43.944 56.1389 44.212 56.3149 44.556C56.4909 44.9 56.5789 45.308 56.5789 45.78C56.5789 46.252 56.4909 46.664 56.3149 47.016C56.1389 47.36 55.8949 47.628 55.5829 47.82C55.2709 48.004 54.9069 48.096 54.4909 48.096ZM54.4909 47.112C54.7549 47.112 54.9669 47.004 55.1269 46.788C55.2869 46.564 55.3669 46.228 55.3669 45.78C55.3669 45.34 55.2869 45.008 55.1269 44.784C54.9669 44.56 54.7549 44.448 54.4909 44.448C54.2349 44.448 54.0229 44.56 53.8549 44.784C53.6949 45 53.6149 45.332 53.6149 45.78C53.6149 46.228 53.6949 46.564 53.8549 46.788C54.0229 47.004 54.2349 47.112 54.4909 47.112Z" fill="#4CAC8F"/>
<path d="M64.4 47.3571V41.1857L65.9015 42.6707C66.0296 42.7974 66.1823 42.8571 66.35 42.8571C66.6698 42.8571 67 42.5958 67 42.2143C67 42.0436 66.9373 41.8948 66.8115 41.7707L64.2252 39.2128C64.1186 39.1074 63.9869 39 63.75 39C63.5131 39 63.399 39.0897 63.2797 39.2076L60.6885 41.7707C60.5627 41.8948 60.5 42.0436 60.5 42.2143C60.5 42.5961 60.8302 42.8571 61.15 42.8571C61.3177 42.8571 61.4704 42.7974 61.5985 42.6707L63.1 41.1857V47.3571C63.1 47.712 63.3912 48 63.75 48C64.1088 48 64.4 47.712 64.4 47.3571Z" fill="#4CAC8F"/>
<path d="M20.23 62.12C19.6767 62.12 19.1633 62.03 18.69 61.85C18.2233 61.67 17.8167 61.4167 17.47 61.09C17.13 60.7633 16.8633 60.38 16.67 59.94C16.4833 59.5 16.39 59.02 16.39 58.5C16.39 57.98 16.4833 57.5 16.67 57.06C16.8633 56.62 17.1333 56.2367 17.48 55.91C17.8267 55.5833 18.2333 55.33 18.7 55.15C19.1667 54.97 19.6733 54.88 20.22 54.88C20.7733 54.88 21.28 54.97 21.74 55.15C22.2067 55.33 22.61 55.5833 22.95 55.91C23.2967 56.2367 23.5667 56.62 23.76 57.06C23.9533 57.4933 24.05 57.9733 24.05 58.5C24.05 59.02 23.9533 59.5033 23.76 59.95C23.5667 60.39 23.2967 60.7733 22.95 61.1C22.61 61.42 22.2067 61.67 21.74 61.85C21.28 62.03 20.7767 62.12 20.23 62.12ZM20.22 60.74C20.5333 60.74 20.82 60.6867 21.08 60.58C21.3467 60.4733 21.58 60.32 21.78 60.12C21.98 59.92 22.1333 59.6833 22.24 59.41C22.3533 59.1367 22.41 58.8333 22.41 58.5C22.41 58.1667 22.3533 57.8633 22.24 57.59C22.1333 57.3167 21.98 57.08 21.78 56.88C21.5867 56.68 21.3567 56.5267 21.09 56.42C20.8233 56.3133 20.5333 56.26 20.22 56.26C19.9067 56.26 19.6167 56.3133 19.35 56.42C19.09 56.5267 18.86 56.68 18.66 56.88C18.46 57.08 18.3033 57.3167 18.19 57.59C18.0833 57.8633 18.03 58.1667 18.03 58.5C18.03 58.8267 18.0833 59.13 18.19 59.41C18.3033 59.6833 18.4567 59.92 18.65 60.12C18.85 60.32 19.0833 60.4733 19.35 60.58C19.6167 60.6867 19.9067 60.74 20.22 60.74ZM28.6175 62.12C28.0775 62.12 27.5742 62.0333 27.1075 61.86C26.6475 61.68 26.2475 61.4267 25.9075 61.1C25.5675 60.7733 25.3008 60.39 25.1075 59.95C24.9208 59.51 24.8275 59.0267 24.8275 58.5C24.8275 57.9733 24.9208 57.49 25.1075 57.05C25.3008 56.61 25.5675 56.2267 25.9075 55.9C26.2542 55.5733 26.6575 55.3233 27.1175 55.15C27.5775 54.97 28.0808 54.88 28.6275 54.88C29.2342 54.88 29.7808 54.9867 30.2675 55.2C30.7608 55.4067 31.1742 55.7133 31.5075 56.12L30.4675 57.08C30.2275 56.8067 29.9608 56.6033 29.6675 56.47C29.3742 56.33 29.0542 56.26 28.7075 56.26C28.3808 56.26 28.0808 56.3133 27.8075 56.42C27.5342 56.5267 27.2975 56.68 27.0975 56.88C26.8975 57.08 26.7408 57.3167 26.6275 57.59C26.5208 57.8633 26.4675 58.1667 26.4675 58.5C26.4675 58.8333 26.5208 59.1367 26.6275 59.41C26.7408 59.6833 26.8975 59.92 27.0975 60.12C27.2975 60.32 27.5342 60.4733 27.8075 60.58C28.0808 60.6867 28.3808 60.74 28.7075 60.74C29.0542 60.74 29.3742 60.6733 29.6675 60.54C29.9608 60.4 30.2275 60.19 30.4675 59.91L31.5075 60.87C31.1742 61.2767 30.7608 61.5867 30.2675 61.8C29.7808 62.0133 29.2308 62.12 28.6175 62.12ZM35.805 62.12C35.265 62.12 34.7617 62.0333 34.295 61.86C33.835 61.68 33.435 61.4267 33.095 61.1C32.755 60.7733 32.4883 60.39 32.295 59.95C32.1083 59.51 32.015 59.0267 32.015 58.5C32.015 57.9733 32.1083 57.49 32.295 57.05C32.4883 56.61 32.755 56.2267 33.095 55.9C33.4417 55.5733 33.845 55.3233 34.305 55.15C34.765 54.97 35.2683 54.88 35.815 54.88C36.4217 54.88 36.9683 54.9867 37.455 55.2C37.9483 55.4067 38.3617 55.7133 38.695 56.12L37.655 57.08C37.415 56.8067 37.1483 56.6033 36.855 56.47C36.5617 56.33 36.2417 56.26 35.895 56.26C35.5683 56.26 35.2683 56.3133 34.995 56.42C34.7217 56.5267 34.485 56.68 34.285 56.88C34.085 57.08 33.9283 57.3167 33.815 57.59C33.7083 57.8633 33.655 58.1667 33.655 58.5C33.655 58.8333 33.7083 59.1367 33.815 59.41C33.9283 59.6833 34.085 59.92 34.285 60.12C34.485 60.32 34.7217 60.4733 34.995 60.58C35.2683 60.6867 35.5683 60.74 35.895 60.74C36.2417 60.74 36.5617 60.6733 36.855 60.54C37.1483 60.4 37.415 60.19 37.655 59.91L38.695 60.87C38.3617 61.2767 37.9483 61.5867 37.455 61.8C36.9683 62.0133 36.4183 62.12 35.805 62.12ZM42.8599 62.12C41.8666 62.12 41.0899 61.8433 40.5299 61.29C39.9699 60.7367 39.6899 59.9467 39.6899 58.92V55H41.3099V58.86C41.3099 59.5267 41.4466 60.0067 41.7199 60.3C41.9933 60.5933 42.3766 60.74 42.8699 60.74C43.3633 60.74 43.7466 60.5933 44.0199 60.3C44.2933 60.0067 44.4299 59.5267 44.4299 58.86V55H46.0299V58.92C46.0299 59.9467 45.7499 60.7367 45.1899 61.29C44.6299 61.8433 43.8533 62.12 42.8599 62.12ZM47.6308 62V55H50.6608C51.2874 55 51.8274 55.1033 52.2808 55.31C52.7341 55.51 53.0841 55.8 53.3308 56.18C53.5774 56.56 53.7008 57.0133 53.7008 57.54C53.7008 58.06 53.5774 58.51 53.3308 58.89C53.0841 59.27 52.7341 59.5633 52.2808 59.77C51.8274 59.97 51.2874 60.07 50.6608 60.07H48.5308L49.2508 59.34V62H47.6308ZM49.2508 59.52L48.5308 58.75H50.5708C51.0708 58.75 51.4441 58.6433 51.6908 58.43C51.9374 58.2167 52.0608 57.92 52.0608 57.54C52.0608 57.1533 51.9374 56.8533 51.6908 56.64C51.4441 56.4267 51.0708 56.32 50.5708 56.32H48.5308L49.2508 55.55V59.52ZM53.5858 62L56.7058 55H58.3058L61.4358 62H59.7358L57.1758 55.82H57.8158L55.2458 62H53.5858ZM55.1458 60.5L55.5758 59.27H59.1758L59.6158 60.5H55.1458ZM62.162 62V55H63.502L67.632 60.04H66.982V55H68.582V62H67.252L63.112 56.96H63.762V62H62.162ZM73.5882 62.12C73.0482 62.12 72.5449 62.0333 72.0782 61.86C71.6182 61.68 71.2182 61.4267 70.8782 61.1C70.5382 60.7733 70.2715 60.39 70.0782 59.95C69.8915 59.51 69.7982 59.0267 69.7982 58.5C69.7982 57.9733 69.8915 57.49 70.0782 57.05C70.2715 56.61 70.5382 56.2267 70.8782 55.9C71.2249 55.5733 71.6282 55.3233 72.0882 55.15C72.5482 54.97 73.0515 54.88 73.5982 54.88C74.2049 54.88 74.7515 54.9867 75.2382 55.2C75.7315 55.4067 76.1449 55.7133 76.4782 56.12L75.4382 57.08C75.1982 56.8067 74.9315 56.6033 74.6382 56.47C74.3449 56.33 74.0249 56.26 73.6782 56.26C73.3515 56.26 73.0515 56.3133 72.7782 56.42C72.5049 56.5267 72.2682 56.68 72.0682 56.88C71.8682 57.08 71.7115 57.3167 71.5982 57.59C71.4915 57.8633 71.4382 58.1667 71.4382 58.5C71.4382 58.8333 71.4915 59.1367 71.5982 59.41C71.7115 59.6833 71.8682 59.92 72.0682 60.12C72.2682 60.32 72.5049 60.4733 72.7782 60.58C73.0515 60.6867 73.3515 60.74 73.6782 60.74C74.0249 60.74 74.3449 60.6733 74.6382 60.54C74.9315 60.4 75.1982 60.19 75.4382 59.91L76.4782 60.87C76.1449 61.2767 75.7315 61.5867 75.2382 61.8C74.7515 62.0133 74.2015 62.12 73.5882 62.12ZM79.2536 62V59.14L79.6236 60.12L76.5436 55H78.2636L80.6236 58.93H79.6336L82.0036 55H83.5936L80.5136 60.12L80.8736 59.14V62H79.2536Z" fill="#4A5663"/>
</svg>
