<svg width="100" height="100" viewBox="0 0 100 100" fill="none" xmlns="http://www.w3.org/2000/svg">
<path d="M100 50C100 77.6142 77.6142 100 50 100C22.3858 100 0 77.6142 0 50C0 22.3858 22.3858 0 50 0C77.6142 0 100 22.3858 100 50ZM10 50C10 72.0914 27.9086 90 50 90C72.0914 90 90 72.0914 90 50C90 27.9086 72.0914 10 50 10C27.9086 10 10 27.9086 10 50Z" fill="#4250CE"/>
<path d="M100 50C100 58.1561 98.0048 66.1884 94.1883 73.3965C90.3718 80.6046 84.8499 86.7696 78.1042 91.354C71.3584 95.9384 63.5936 98.803 55.4867 99.698C47.3799 100.593 39.1771 99.4913 31.5938 96.4888L35.275 87.1911C41.3417 89.593 47.9039 90.4744 54.3894 89.7584C60.8749 89.0424 67.0867 86.7508 72.4833 83.0832C77.8799 79.4157 82.2974 74.4837 85.3506 68.7172C88.4038 62.9507 90 56.5249 90 50H100Z" fill="#689FF1"/>
<path d="M34.264 48V40.32L35.104 41.16H32.584V39.6H36.208V48H34.264ZM41.4232 48.144C40.6552 48.144 39.9872 47.984 39.4192 47.664C38.8592 47.344 38.4272 46.876 38.1232 46.26C37.8192 45.644 37.6672 44.884 37.6672 43.98C37.6672 43.012 37.8472 42.192 38.2072 41.52C38.5752 40.848 39.0792 40.336 39.7192 39.984C40.3672 39.632 41.1112 39.456 41.9512 39.456C42.3992 39.456 42.8272 39.504 43.2352 39.6C43.6432 39.696 43.9952 39.84 44.2912 40.032L43.5712 41.46C43.3392 41.3 43.0912 41.192 42.8272 41.136C42.5632 41.072 42.2872 41.04 41.9992 41.04C41.2712 41.04 40.6952 41.26 40.2712 41.7C39.8472 42.14 39.6352 42.792 39.6352 43.656C39.6352 43.8 39.6352 43.96 39.6352 44.136C39.6432 44.312 39.6672 44.488 39.7072 44.664L39.1672 44.16C39.3192 43.848 39.5152 43.588 39.7552 43.38C39.9952 43.164 40.2792 43.004 40.6072 42.9C40.9432 42.788 41.3112 42.732 41.7112 42.732C42.2552 42.732 42.7432 42.84 43.1752 43.056C43.6072 43.272 43.9512 43.576 44.2072 43.968C44.4712 44.36 44.6032 44.82 44.6032 45.348C44.6032 45.916 44.4592 46.412 44.1712 46.836C43.8912 47.252 43.5112 47.576 43.0312 47.808C42.5592 48.032 42.0232 48.144 41.4232 48.144ZM41.3152 46.692C41.5872 46.692 41.8272 46.644 42.0352 46.548C42.2512 46.444 42.4192 46.296 42.5392 46.104C42.6592 45.912 42.7192 45.692 42.7192 45.444C42.7192 45.06 42.5872 44.756 42.3232 44.532C42.0672 44.3 41.7232 44.184 41.2912 44.184C41.0032 44.184 40.7512 44.24 40.5352 44.352C40.3192 44.456 40.1472 44.604 40.0192 44.796C39.8992 44.98 39.8392 45.196 39.8392 45.444C39.8392 45.684 39.8992 45.9 40.0192 46.092C40.1392 46.276 40.3072 46.424 40.5232 46.536C40.7392 46.64 41.0032 46.692 41.3152 46.692Z" fill="#4250CE"/>
<path d="M49.104 49.2L53.064 37.896H54.732L50.772 49.2H49.104Z" fill="#4250CE"/>
<path d="M61.824 48.144C61.24 48.144 60.66 48.068 60.084 47.916C59.516 47.756 59.028 47.532 58.62 47.244L59.388 45.756C59.708 45.988 60.076 46.172 60.492 46.308C60.916 46.444 61.344 46.512 61.776 46.512C62.264 46.512 62.648 46.416 62.928 46.224C63.208 46.032 63.348 45.764 63.348 45.42C63.348 45.204 63.292 45.012 63.18 44.844C63.068 44.676 62.868 44.548 62.58 44.46C62.3 44.372 61.904 44.328 61.392 44.328H59.244L59.676 39.6H64.8V41.16H60.372L61.38 40.272L61.08 43.644L60.072 42.756H61.848C62.68 42.756 63.348 42.872 63.852 43.104C64.364 43.328 64.736 43.636 64.968 44.028C65.2 44.42 65.316 44.864 65.316 45.36C65.316 45.856 65.192 46.316 64.944 46.74C64.696 47.156 64.312 47.496 63.792 47.76C63.28 48.016 62.624 48.144 61.824 48.144Z" fill="#689FF1"/>
<path d="M31.13 62.12C30.57 62.12 30.0333 62.0467 29.52 61.9C29.0067 61.7467 28.5933 61.55 28.28 61.31L28.83 60.09C29.13 60.3033 29.4833 60.48 29.89 60.62C30.3033 60.7533 30.72 60.82 31.14 60.82C31.46 60.82 31.7167 60.79 31.91 60.73C32.11 60.6633 32.2567 60.5733 32.35 60.46C32.4433 60.3467 32.49 60.2167 32.49 60.07C32.49 59.8833 32.4167 59.7367 32.27 59.63C32.1233 59.5167 31.93 59.4267 31.69 59.36C31.45 59.2867 31.1833 59.22 30.89 59.16C30.6033 59.0933 30.3133 59.0133 30.02 58.92C29.7333 58.8267 29.47 58.7067 29.23 58.56C28.99 58.4133 28.7933 58.22 28.64 57.98C28.4933 57.74 28.42 57.4333 28.42 57.06C28.42 56.66 28.5267 56.2967 28.74 55.97C28.96 55.6367 29.2867 55.3733 29.72 55.18C30.16 54.98 30.71 54.88 31.37 54.88C31.81 54.88 32.2433 54.9333 32.67 55.04C33.0967 55.14 33.4733 55.2933 33.8 55.5L33.3 56.73C32.9733 56.5433 32.6467 56.4067 32.32 56.32C31.9933 56.2267 31.6733 56.18 31.36 56.18C31.0467 56.18 30.79 56.2167 30.59 56.29C30.39 56.3633 30.2467 56.46 30.16 56.58C30.0733 56.6933 30.03 56.8267 30.03 56.98C30.03 57.16 30.1033 57.3067 30.25 57.42C30.3967 57.5267 30.59 57.6133 30.83 57.68C31.07 57.7467 31.3333 57.8133 31.62 57.88C31.9133 57.9467 32.2033 58.0233 32.49 58.11C32.7833 58.1967 33.05 58.3133 33.29 58.46C33.53 58.6067 33.7233 58.8 33.87 59.04C34.0233 59.28 34.1 59.5833 34.1 59.95C34.1 60.3433 33.99 60.7033 33.77 61.03C33.55 61.3567 33.22 61.62 32.78 61.82C32.3467 62.02 31.7967 62.12 31.13 62.12ZM40.007 55H41.627V62H40.007V55ZM36.827 62H35.207V55H36.827V62ZM40.127 59.13H36.707V57.76H40.127V59.13ZM42.3631 62L45.4831 55H47.0831L50.2131 62H48.5131L45.9531 55.82H46.5931L44.0231 62H42.3631ZM43.9231 60.5L44.3531 59.27H47.9531L48.3931 60.5H43.9231ZM50.9394 62V55H53.9694C54.596 55 55.136 55.1033 55.5894 55.31C56.0427 55.51 56.3927 55.8 56.6394 56.18C56.886 56.56 57.0094 57.0133 57.0094 57.54C57.0094 58.06 56.886 58.51 56.6394 58.89C56.3927 59.2633 56.0427 59.55 55.5894 59.75C55.136 59.95 54.596 60.05 53.9694 60.05H51.8394L52.5594 59.34V62H50.9394ZM55.3894 62L53.6394 59.46H55.3694L57.1394 62H55.3894ZM52.5594 59.52L51.8394 58.76H53.8794C54.3794 58.76 54.7527 58.6533 54.9994 58.44C55.246 58.22 55.3694 57.92 55.3694 57.54C55.3694 57.1533 55.246 56.8533 54.9994 56.64C54.7527 56.4267 54.3794 56.32 53.8794 56.32H51.8394L52.5594 55.55V59.52ZM59.7829 57.82H63.1529V59.08H59.7829V57.82ZM59.9029 60.7H63.7129V62H58.2929V55H63.5829V56.3H59.9029V60.7ZM67.3019 62.12C66.7419 62.12 66.2052 62.0467 65.6919 61.9C65.1785 61.7467 64.7652 61.55 64.4519 61.31L65.0019 60.09C65.3019 60.3033 65.6552 60.48 66.0619 60.62C66.4752 60.7533 66.8919 60.82 67.3119 60.82C67.6319 60.82 67.8885 60.79 68.0819 60.73C68.2819 60.6633 68.4285 60.5733 68.5219 60.46C68.6152 60.3467 68.6619 60.2167 68.6619 60.07C68.6619 59.8833 68.5885 59.7367 68.4419 59.63C68.2952 59.5167 68.1019 59.4267 67.8619 59.36C67.6219 59.2867 67.3552 59.22 67.0619 59.16C66.7752 59.0933 66.4852 59.0133 66.1919 58.92C65.9052 58.8267 65.6419 58.7067 65.4019 58.56C65.1619 58.4133 64.9652 58.22 64.8119 57.98C64.6652 57.74 64.5919 57.4333 64.5919 57.06C64.5919 56.66 64.6985 56.2967 64.9119 55.97C65.1319 55.6367 65.4585 55.3733 65.8919 55.18C66.3319 54.98 66.8819 54.88 67.5419 54.88C67.9819 54.88 68.4152 54.9333 68.8419 55.04C69.2685 55.14 69.6452 55.2933 69.9719 55.5L69.4719 56.73C69.1452 56.5433 68.8185 56.4067 68.4919 56.32C68.1652 56.2267 67.8452 56.18 67.5319 56.18C67.2185 56.18 66.9619 56.2167 66.7619 56.29C66.5619 56.3633 66.4185 56.46 66.3319 56.58C66.2452 56.6933 66.2019 56.8267 66.2019 56.98C66.2019 57.16 66.2752 57.3067 66.4219 57.42C66.5685 57.5267 66.7619 57.6133 67.0019 57.68C67.2419 57.7467 67.5052 57.8133 67.7919 57.88C68.0852 57.9467 68.3752 58.0233 68.6619 58.11C68.9552 58.1967 69.2219 58.3133 69.4619 58.46C69.7019 58.6067 69.8952 58.8 70.0419 59.04C70.1952 59.28 70.2719 59.5833 70.2719 59.95C70.2719 60.3433 70.1619 60.7033 69.9419 61.03C69.7219 61.3567 69.3919 61.62 68.9519 61.82C68.5185 62.02 67.9685 62.12 67.3019 62.12Z" fill="#4A5663"/>
</svg>
